<svg width="50" height="50" viewBox="0 0 50 50" fill="none" xmlns="http://www.w3.org/2000/svg">
<path fill-rule="evenodd" clip-rule="evenodd" d="M23.5573 0.088723C23.5022 0.143826 23.457 0.284286 23.457 0.400821V0.612437H23.0288C22.4267 0.612437 22.2952 0.674332 22.2462 0.981027C22.2081 1.21919 22.1967 1.22984 21.9797 1.22984C21.6918 1.22984 21.6047 1.31875 21.6047 1.61263C21.6047 1.84308 21.6006 1.84725 21.3701 1.84725C21.0762 1.84725 20.9873 1.9343 20.9873 2.22216C20.9873 2.43918 20.9767 2.4506 20.7385 2.48873C20.4318 2.53766 20.3699 2.66917 20.3699 3.27129V3.69946H20.1353C19.7934 3.69946 19.7525 3.77293 19.7525 4.38725V4.92701L19.4904 4.97888C19.1361 5.04895 19.1508 4.90077 19.1423 8.4882C19.1341 11.9497 19.142 12.0162 19.5722 12.1787C19.75 12.2457 19.7525 12.2534 19.7525 12.7231C19.7525 13.3733 19.81 13.5042 20.118 13.5534C20.3599 13.5921 20.364 13.5972 20.3822 13.8786C20.398 14.1223 20.4214 14.1674 20.5414 14.1844C20.7962 14.2205 20.9651 14.4596 21.0108 14.8485C21.0586 15.256 21.1276 15.3684 21.33 15.3684C21.5124 15.3684 21.6665 15.5224 21.6665 15.7049C21.6665 15.9262 21.8074 15.9945 22.3404 16.031L22.8336 16.0648L22.8519 16.3495L22.8705 16.6341L23.4724 16.6517L24.0744 16.6694V16.9017C24.0744 17.234 24.153 17.2813 24.7196 17.2896C25.0217 17.2941 25.1466 17.3123 25.0381 17.3359C24.8473 17.3776 24.7821 17.4597 24.7252 17.73L24.6895 17.8998H23.6819C22.6837 17.8998 22.6735 17.8984 22.608 17.7545C22.4344 17.3737 22.092 17.2824 20.8374 17.2824H19.6907V17.0738C19.6907 16.7545 19.594 16.7159 18.7033 16.6798L17.9002 16.6472V16.4215C17.9002 16.0888 17.824 16.0475 17.2087 16.0475H16.6654V15.8129C16.6654 15.5124 16.5783 15.4301 16.2606 15.4301C16.0242 15.4301 15.9996 15.4144 15.9467 15.2295C15.8751 14.9794 15.6455 14.8601 15.1681 14.8245L14.8131 14.7979V14.5707C14.8131 14.2824 14.7243 14.1953 14.4303 14.1953C14.2108 14.1953 14.1957 14.1835 14.1957 14.0101C14.1957 13.7514 14.0029 13.5779 13.7153 13.5779C13.514 13.5779 13.4725 13.5531 13.4139 13.3976C13.3305 13.1772 12.9167 12.9605 12.5788 12.9605C12.3474 12.9605 12.3434 12.9565 12.3434 12.7259C12.3434 12.4322 12.2564 12.3431 11.9688 12.3431C11.7504 12.3431 11.741 12.334 11.7084 12.0911C11.6666 11.7784 11.6679 11.7796 11.3345 11.7421C11.091 11.7146 11.0544 11.6898 11.0051 11.5178C10.9358 11.2759 10.7011 11.1552 10.2318 11.1202L9.8799 11.094L9.86137 10.8078L9.84285 10.5218L9.54958 10.5029L9.2563 10.4841V10.2529C9.2563 9.96148 9.16847 9.8735 8.8772 9.8735C8.65478 9.8735 8.64428 9.86378 8.59427 9.61142C8.53808 9.32726 8.44902 9.27941 7.94706 9.26335C7.68836 9.25517 7.4258 9.04032 7.39308 8.81018L7.37316 8.66957L5.92994 8.65305C4.32943 8.63453 4.31692 8.63731 4.31692 9.0167C4.31692 9.2527 4.31368 9.2561 4.08231 9.2561C3.78656 9.2561 3.6995 9.34315 3.6995 9.63889C3.6995 9.86934 3.69534 9.8735 3.46488 9.8735C3.16914 9.8735 3.08208 9.96056 3.08208 10.2563C3.08208 10.4867 3.07791 10.4909 2.84746 10.4909C2.55172 10.4909 2.46466 10.578 2.46466 10.8737C2.46466 11.1041 2.46049 11.1083 2.23004 11.1083C1.93429 11.1083 1.84724 11.1954 1.84724 11.4911C1.84724 11.7216 1.84307 11.7257 1.61262 11.7257C1.31687 11.7257 1.22982 11.8128 1.22982 12.1085C1.22982 12.339 1.22565 12.3431 0.995195 12.3431C0.613011 12.3431 0.612393 12.3457 0.612393 13.8866C0.612393 15.4275 0.613011 15.4301 0.995195 15.4301C1.22117 15.4301 1.22982 15.4379 1.22982 15.6418C1.22982 15.9089 1.36627 16.0475 1.62898 16.0475C1.83643 16.0475 1.90898 16.1269 1.90898 16.3538C1.90898 16.5239 2.03864 16.5957 2.42885 16.6415C2.81782 16.6872 3.05692 16.856 3.09304 17.1109C3.11017 17.2314 3.15478 17.2541 3.40623 17.2703L3.6995 17.2892V17.5204C3.6995 17.8109 3.78733 17.8998 4.07412 17.8998C4.29254 17.8998 4.30195 17.9089 4.33452 18.1518C4.37651 18.4652 4.37435 18.4631 4.71516 18.5016C4.95287 18.5284 4.99609 18.5539 4.99609 18.6678C4.99609 18.9686 5.3102 19.1298 5.90339 19.133L6.1624 19.1346L6.18123 19.4278L6.20006 19.7211L6.49334 19.7399L6.78661 19.7588V19.99C6.78661 20.2805 6.87444 20.3694 7.16154 20.3694C7.37857 20.3694 7.38999 20.38 7.42811 20.6182C7.47072 20.8855 7.61427 20.9868 7.95014 20.9868C8.07872 20.9868 8.13367 21.0288 8.18585 21.1671C8.26889 21.3867 8.68256 21.6042 9.01751 21.6042H9.24951L9.26834 21.8975L9.28717 22.1907L9.58045 22.2096L9.87372 22.2284V22.4596C9.87372 22.7501 9.96155 22.839 10.2487 22.839C10.4657 22.839 10.4771 22.8497 10.5152 23.0878C10.5572 23.351 10.7015 23.4564 11.02 23.4564C11.1359 23.4564 11.1703 23.4891 11.1703 23.599C11.1703 23.9082 11.4786 24.0689 12.0776 24.0723L12.3366 24.0738L12.3555 24.3671L12.3743 24.6603L12.6643 24.679L12.9543 24.6977L12.973 24.9877L12.9917 25.2777L13.2817 25.2964L13.5718 25.3151L13.5904 25.6051L13.6091 25.8952L13.9024 25.914L14.1957 25.9328V27.4647V28.9968L13.9436 29.0306C13.5992 29.0768 13.6116 29.0431 13.5892 29.9987L13.5691 30.8509L13.3248 30.89C12.9996 30.942 12.9608 31.0607 12.9608 32.0038V32.7638L12.7784 32.8002C12.4288 32.8701 12.3768 33.0499 12.3528 34.2713C12.3331 35.2902 12.323 35.3705 12.2124 35.4056C12.1468 35.4263 12.0457 35.5177 11.9876 35.6085C11.9294 35.6994 11.8468 35.8104 11.8039 35.8553C11.7454 35.9164 11.726 36.3145 11.726 37.4451V38.9533H11.5222C11.2635 38.9533 11.1728 39.0454 11.1606 39.3206C11.1526 39.5017 11.1445 39.4861 11.1143 39.2311L11.0777 38.9224L10.7877 38.9037L10.4976 38.885L10.4789 38.595L10.4603 38.305L10.1743 38.2865L9.88808 38.2679L9.86184 37.916C9.8268 37.4468 9.70609 37.212 9.46422 37.1427C9.29227 37.0935 9.26741 37.0569 9.23994 36.8133C9.20243 36.4804 9.20336 36.4813 8.89403 36.4398C8.64721 36.4068 8.6449 36.4038 8.62653 36.1209L8.60801 35.8354L8.31473 35.8165L8.02146 35.7977V35.2808C8.02146 34.6878 7.954 34.5697 7.61566 34.5697H7.40403L7.39786 34.1529C7.3886 33.5207 7.35094 33.4371 7.04624 33.3724L6.78661 33.3173V32.8058C6.78661 32.2203 6.71823 32.1001 6.3856 32.1001H6.17845L6.15839 31.2406C6.13585 30.279 6.14758 30.3114 5.80908 30.2661L5.56227 30.233L5.54158 28.9255C5.51858 27.4737 5.47891 27.3161 5.11741 27.2437L4.93558 27.2074L4.91953 24.4213L4.90348 21.6351L4.6102 21.6162C4.32202 21.5977 4.31692 21.5938 4.31692 21.3892C4.31692 21.1138 4.17909 20.9868 3.88025 20.9868C3.64594 20.9868 3.63776 20.9797 3.63776 20.7783C3.63776 20.4915 3.55287 20.4424 2.97372 20.3941L2.47068 20.3521L2.45231 20.0675L2.43379 19.7828L2.14051 19.764L1.84724 19.7452V19.5092C1.84724 19.3746 1.80741 19.2401 1.75462 19.1963C1.63006 19.0929 0.213693 19.1381 0.102712 19.2491C0.00377003 19.3479 -0.0440806 30.384 0.0531633 30.6399C0.100859 30.7652 0.170474 30.8103 0.363572 30.8412L0.612393 30.881L0.615017 31.7529C0.619185 33.0586 0.681082 33.27 1.06002 33.2722L1.22982 33.2731V33.8875C1.22982 34.3181 1.25328 34.5166 1.30854 34.5512C1.35176 34.5783 1.43434 34.6748 1.49207 34.7657C1.54979 34.8565 1.6492 34.9474 1.71295 34.9676C1.81174 34.9989 1.83443 35.0912 1.86777 35.5974C1.9116 36.2654 1.95992 36.3602 2.25612 36.3602C2.46358 36.3602 2.46466 36.3617 2.4662 36.6534C2.46929 37.2846 2.62426 37.595 2.93637 37.595C3.06078 37.595 3.0776 37.6294 3.09427 37.9191L3.11295 38.2432L3.40021 38.2618L3.68746 38.2804L3.70892 38.8278C3.73346 39.4541 3.72929 39.4464 4.06178 39.491C4.30859 39.524 4.31091 39.527 4.32927 39.8099L4.3478 40.0955L4.63382 40.114L4.91999 40.1325L4.94623 40.4844C4.98143 40.955 5.10182 41.1884 5.3457 41.2583C5.51642 41.3071 5.5476 41.35 5.59298 41.5982C5.64253 41.8693 5.65642 41.8844 5.89922 41.9324C6.13878 41.9798 6.15545 41.9972 6.1871 42.2328C6.22815 42.5398 6.22538 42.537 6.53455 42.5783C6.77164 42.6101 6.78661 42.6243 6.78661 42.8157C6.78661 43.0746 6.92538 43.2133 7.18423 43.2133C7.37563 43.2133 7.38983 43.2283 7.42163 43.4654C7.463 43.7746 7.46022 43.7718 7.76723 43.8128C8.00232 43.8445 8.02022 43.8615 8.06699 44.0979C8.11469 44.3392 8.12935 44.3522 8.42417 44.4145C8.66774 44.4661 8.7355 44.5073 8.75063 44.6136C8.78505 44.8552 9.19394 45.0628 9.63879 45.0646L9.86693 45.0656L9.88576 45.3588L9.90459 45.6521L10.1905 45.6706C10.4719 45.6888 10.4769 45.693 10.5157 45.9349C10.5642 46.2379 10.6974 46.3004 11.2944 46.3004H11.7192L11.738 46.5936L11.7569 46.8869L12.081 46.9056C12.3871 46.9232 12.4052 46.9335 12.4061 47.0908C12.4079 47.4132 12.6481 47.5261 13.3467 47.5326C13.6246 47.535 13.64 47.5441 13.6409 47.705C13.6429 48.062 13.8711 48.1452 14.8594 48.15L15.4305 48.1526V48.392C15.4305 48.7221 15.5072 48.7624 16.1741 48.783C16.7006 48.7992 16.7587 48.8127 16.7791 48.9243C16.843 49.2749 17.0324 49.3329 18.2707 49.3811C19.1888 49.4167 19.2284 49.4237 19.2465 49.5507C19.3112 50.0036 19.3373 50.0056 25.2238 49.9986C31.0542 49.9918 30.7514 50.0108 30.8286 49.647L30.8837 49.3874L31.7238 49.3848C32.9838 49.3806 33.274 49.2923 33.274 48.9126C33.274 48.7743 33.2907 48.77 33.8246 48.77C34.4542 48.77 34.5706 48.7405 34.5706 48.5809C34.5706 48.3208 34.8545 48.1527 35.2988 48.15C36.1166 48.1446 36.3582 48.0453 36.3602 47.7141C36.3611 47.5582 36.375 47.5525 36.8424 47.5163C37.6441 47.4546 37.6045 47.5188 37.6434 46.223C37.6764 45.1213 37.6588 45.0656 37.2797 45.0656H37.0403L37.0387 44.4945C37.0364 43.5761 36.9196 43.2751 36.5655 43.2751C36.4261 43.2751 36.4229 43.2614 36.4229 42.6608C36.4229 42.2301 36.3994 42.0316 36.3441 41.9971C36.3009 41.9699 36.2183 41.8734 36.1606 41.7825C36.1029 41.6918 35.9995 41.5996 35.9306 41.5777C35.8101 41.5396 35.8051 41.4866 35.7982 40.1376C35.7889 38.3842 35.7892 38.3857 35.4501 38.3187L35.188 38.2669V37.0137V35.7607L35.3887 35.7032C35.7452 35.6011 35.7723 35.4675 35.7945 33.697L35.8145 32.1144L36.0589 32.0754C36.3827 32.0235 36.4229 31.9036 36.4229 30.9883V30.2551L36.685 30.2032C37.0045 30.1401 37.0225 30.0824 37.033 29.0902L37.0403 28.3956H37.2749C37.6171 28.3956 37.6577 28.3223 37.6577 27.7041V27.1608H37.8923C38.2342 27.1608 38.2751 27.0874 38.2751 26.4727V25.9328L38.5684 25.914L38.8617 25.8952L38.8804 25.571C38.898 25.2649 38.9083 25.2469 39.0656 25.246C39.3837 25.2441 39.5004 25.0036 39.5074 24.3362C39.51 24.074 39.5101 24.0738 39.7446 24.0738C40.0468 24.0738 40.1274 23.9868 40.1274 23.6601C40.1274 23.412 40.1384 23.3947 40.2972 23.3937C40.6182 23.3919 40.7352 23.1536 40.7422 22.4874L40.7448 22.2284L41.0381 22.2096L41.3314 22.1907L41.3502 21.8975L41.369 21.6042H41.6003C41.8908 21.6042 41.9797 21.5164 41.9797 21.2293C41.9797 21.0123 41.9903 21.0008 42.2285 20.9627C42.4906 20.9209 42.5971 20.7764 42.5971 20.4629C42.5971 20.3522 42.6405 20.308 42.778 20.2777C43.0012 20.2288 43.0572 20.1622 43.1558 19.8304C43.202 19.675 43.2803 19.5543 43.3491 19.5323C43.4127 19.5121 43.5119 19.4214 43.5697 19.3306C43.6274 19.2397 43.71 19.1432 43.7532 19.1161C43.7975 19.0883 43.8319 18.9481 43.8319 18.7953V18.524L44.1252 18.5051L44.4185 18.4863L44.4372 18.1963L44.4558 17.9062L44.7459 17.8876L45.0359 17.8689L45.0546 17.5789L45.0733 17.2888L45.3633 17.2702L45.6533 17.2515L45.672 16.9615L45.6907 16.6714L45.9807 16.6528L46.2707 16.6341L46.2894 16.3441L46.3081 16.054L46.5981 16.0354L46.8882 16.0167L46.9068 15.7267L46.9255 15.4366L47.2156 15.418C47.4636 15.4021 47.5085 15.3789 47.5255 15.2587C47.5513 15.0778 47.8015 14.8276 47.9824 14.8018C48.1026 14.7848 48.1258 14.7399 48.1417 14.4918L48.1604 14.2018L48.4504 14.1831L48.7404 14.1645L48.7573 13.0303C48.7761 11.7657 48.7651 11.7257 48.3967 11.7257H48.1607L48.1418 11.4325L48.123 11.1392L47.833 11.1205L47.5429 11.1018L47.5243 10.8118L47.5056 10.5218L47.2156 10.5031L46.9255 10.4844L46.9068 10.1944L46.8882 9.90437L46.5981 9.8857L46.3081 9.86702L46.2894 9.577L46.2707 9.28697L45.9807 9.26829L45.6907 9.24962L45.672 8.95959L45.6533 8.66957L45.3633 8.65089L45.0733 8.63221L45.0546 8.34219L45.0359 8.05216L44.7503 8.03364C44.4674 8.01527 44.4645 8.01296 44.4314 7.76615C44.3856 7.42488 44.42 7.43692 43.4411 7.41608C42.2433 7.39046 42.0899 7.4275 42.0244 7.75812C41.9743 8.01172 41.9702 8.01496 41.6835 8.03349L41.3931 8.05216L41.3743 8.34543L41.3554 8.6387H41.0841C40.9313 8.6387 40.7911 8.67312 40.7633 8.71741C40.7362 8.76063 40.6397 8.84321 40.5488 8.90094C40.458 8.95867 40.3671 9.05838 40.3467 9.12259C40.3193 9.20902 40.2297 9.24869 40.001 9.27586C39.6043 9.32278 39.5904 9.33343 39.5408 9.62685C39.5009 9.86285 39.4891 9.8735 39.27 9.8735C38.9804 9.8735 38.8926 9.96179 38.8926 10.2529V10.4841L38.5993 10.5029L38.306 10.5218L38.2872 10.815L38.2683 11.1083L38.0093 11.1109C37.3431 11.1179 37.1048 11.2349 37.103 11.5559C37.102 11.7121 37.0827 11.7257 36.8595 11.7257C36.5607 11.7257 36.4229 11.8527 36.4229 12.1281C36.4229 12.3328 36.4178 12.3366 36.1296 12.3552L35.8363 12.374L35.8178 12.6585L35.7994 12.9429L35.3286 12.9828C34.7989 13.0275 34.6323 13.1278 34.6323 13.4023C34.6323 13.5656 34.6152 13.5779 34.3899 13.5779C34.0899 13.5779 33.9532 13.7051 33.9532 13.9837C33.9532 14.193 33.9502 14.1953 33.6784 14.1953C33.5228 14.1953 33.3822 14.2294 33.3543 14.2741C33.3271 14.3173 33.2306 14.3999 33.1397 14.4576C33.049 14.5153 32.9568 14.6187 32.9349 14.6876C32.9017 14.7922 32.8424 14.8127 32.5722 14.8127C32.1875 14.8127 32.1009 14.8831 32.1009 15.1955V15.4301H31.7768H31.4526L31.4738 15.1247L31.4949 14.8191L31.7825 14.8004L32.07 14.7819L32.0886 14.496C32.1068 14.2146 32.1109 14.2095 32.3528 14.1708C32.6552 14.1225 32.7183 13.989 32.7183 13.3969V12.9767L32.9704 12.9429C33.3148 12.8968 33.3024 12.9304 33.3248 11.9755L33.3449 11.1239L33.6 11.0699C33.9468 10.9963 33.9399 11.0469 33.947 8.53513C33.9538 6.122 33.9618 6.16908 33.5474 6.16908H33.3358V5.31706C33.3358 4.36564 33.3171 4.31686 32.953 4.31686H32.7183V3.77355C32.7183 3.15537 32.6777 3.08205 32.3355 3.08205H32.1009L32.0994 2.81966C32.096 2.21537 31.9827 1.98138 31.6612 1.91562C31.4906 1.88074 31.4497 1.83907 31.4137 1.66295C31.3592 1.39669 31.2435 1.31257 30.8579 1.25963C30.5206 1.21317 30.2715 1.02208 30.2377 0.783921C30.2207 0.664144 30.1722 0.638676 29.9091 0.612437C29.615 0.58311 29.5994 0.572305 29.5814 0.38554C29.5457 0.0180302 29.6238 0.0276001 26.5115 0.00707136C23.9431 -0.00975291 23.6478 -0.00172676 23.5573 0.088723ZM17.0832 1.10636C17.0133 1.21826 16.9392 1.22984 16.2924 1.22984C15.4906 1.22984 15.4305 1.25654 15.4305 1.61263V1.84725L14.8594 1.84879C13.9486 1.8511 13.64 1.96857 13.64 2.31292C13.64 2.43563 13.5994 2.44952 13.1368 2.48518C12.5736 2.52855 12.4052 2.62487 12.4052 2.90316C12.4052 3.0677 12.3902 3.0765 12.081 3.09425L11.7569 3.11292L11.7383 3.40017L11.7197 3.68742L11.1723 3.70887C10.5459 3.73342 10.5537 3.72925 10.509 4.06172C10.476 4.30853 10.4731 4.31084 10.1902 4.32921L9.90459 4.34773L9.88576 4.641L9.86693 4.93427L9.60792 4.93458C8.86007 4.93566 8.69383 5.11856 8.652 5.98679C8.61789 6.69541 8.65848 6.78648 9.00902 6.78648C9.23083 6.78648 9.2421 6.79667 9.27945 7.02989C9.32453 7.31143 9.34938 7.33289 9.70239 7.39308C9.89533 7.42611 9.97127 7.47041 9.98764 7.55978C10.0187 7.72941 10.1803 7.89781 10.3118 7.89781C10.3724 7.89781 10.4393 7.92559 10.4603 7.95955C10.4813 7.99351 10.6342 8.02129 10.8002 8.02129H11.1018L11.1206 8.31456L11.1394 8.60783L11.4327 8.62666C11.7209 8.64518 11.726 8.64904 11.726 8.85371C11.726 9.226 11.8302 9.26845 12.6873 9.24545C13.5398 9.22276 13.5148 9.23279 13.5603 8.89384C13.5934 8.64703 13.5963 8.64471 13.8792 8.62635L14.1648 8.60783L14.1836 8.31456L14.2025 8.02129H14.7194C15.3112 8.02129 15.4305 7.95368 15.4305 7.6189C15.4305 7.41423 15.4356 7.41037 15.7238 7.39185L16.0171 7.37302L16.0347 6.77861L16.0523 6.1842L16.2989 6.14469C16.6272 6.09221 16.6654 5.97552 16.6654 5.02287V4.25512L16.8352 4.2542C17.1635 4.25235 17.2738 4.01464 17.2802 3.29629C17.2826 3.01013 17.2971 2.98018 17.4646 2.91705C17.8916 2.75591 18.1109 1.29482 17.7165 1.2391C17.6324 1.22737 17.5267 1.16486 17.4814 1.10019C17.3745 0.947379 17.1806 0.950311 17.0832 1.10636ZM35.8707 2.55294C35.792 2.64786 35.7983 4.76294 35.8775 4.84181C35.9002 4.8645 36.0305 4.89784 36.1673 4.91621L36.4156 4.94955L36.4347 6.14824C36.4471 6.9325 36.4772 7.36206 36.5217 7.39077C36.559 7.415 36.6238 7.49958 36.6655 7.57892C36.9123 8.04722 38.1516 7.98085 38.1516 7.49927C38.1516 7.43491 38.2106 7.40389 38.3329 7.40389C38.6825 7.40389 38.8253 7.30556 38.8685 7.0353C38.9066 6.79713 38.918 6.78648 39.135 6.78648C39.4221 6.78648 39.51 6.69758 39.51 6.40709V6.17587L39.8032 6.15704L40.0965 6.13821V5.24297V4.34773L39.8107 4.32921C39.5293 4.311 39.5242 4.30683 39.4854 4.06496C39.437 3.76197 39.3038 3.69946 38.7067 3.69946H38.2819L38.2631 3.40619L38.2443 3.11292L37.9047 3.08205C37.6145 3.05566 37.5623 3.03158 37.546 2.91674C37.4938 2.55047 36.1203 2.25226 35.8707 2.55294ZM31.0397 15.472C30.9823 15.4871 30.923 15.5464 30.9079 15.6038C30.8884 15.6776 30.8783 15.6675 30.8732 15.5691C30.8678 15.4621 30.898 15.4318 31.005 15.4372C31.1035 15.4423 31.1135 15.4525 31.0397 15.472ZM48.3127 18.0586C48.2593 18.1118 48.2156 18.2369 48.2156 18.3364C48.2156 18.5082 48.2025 18.5172 47.9501 18.5172C47.6235 18.5172 47.5365 18.5977 47.5365 18.9C47.5365 19.1304 47.5323 19.1346 47.3018 19.1346C47.0061 19.1346 46.919 19.2216 46.919 19.5174C46.919 19.7478 46.9149 19.752 46.6844 19.752C46.3887 19.752 46.3016 19.839 46.3016 20.1348C46.3016 20.3652 46.2974 20.3694 46.067 20.3694C45.7712 20.3694 45.6842 20.4564 45.6842 20.7522C45.6842 20.9781 45.6765 20.9868 45.4726 20.9868C45.0495 20.9868 45.0668 20.8499 45.0668 24.2018V27.2226H44.9241C44.5248 27.2226 44.4557 27.4944 44.452 29.0823L44.4493 30.2321L44.2005 30.2719C43.8713 30.3246 43.8319 30.4411 43.8319 31.3632V32.1001H43.6203C43.2815 32.1001 43.2145 32.2178 43.2145 32.8146V33.3349H43.0293C42.7003 33.3349 42.5971 33.5119 42.5971 34.0758V34.5697H42.3855C42.0471 34.5697 41.9797 34.6878 41.9797 35.2808V35.7977L41.6864 35.8165L41.3931 35.8354L41.3743 36.1286C41.3558 36.4168 41.3519 36.4219 41.1472 36.4219C40.8718 36.4219 40.7448 36.5597 40.7448 36.8586C40.7448 37.0839 40.7325 37.101 40.5692 37.101C40.2947 37.101 40.1944 37.2676 40.1496 37.7973L40.1098 38.2681L39.8253 38.2865L39.5408 38.305L39.5222 38.595L39.5035 38.885L39.2135 38.9037L38.9234 38.9224L38.9071 40.6744C38.889 42.605 38.8873 42.5959 39.2638 42.5959H39.4964L39.5209 43.2597C39.5611 44.3423 39.6727 44.4398 40.8683 44.4374C41.8052 44.4353 41.8736 44.4137 41.9406 44.0976C41.9906 43.8619 42.0105 43.8429 42.239 43.8122C42.5403 43.7718 42.5381 43.7741 42.5795 43.4654C42.6113 43.2283 42.6255 43.2133 42.8169 43.2133C43.0757 43.2133 43.2145 43.0746 43.2145 42.8157C43.2145 42.6243 43.2295 42.6101 43.4666 42.5783C43.7757 42.537 43.773 42.5398 43.814 42.2328C43.8457 41.9972 43.8623 41.9798 44.1019 41.9324C44.3447 41.8844 44.3586 41.8693 44.4081 41.5982C44.4535 41.35 44.4847 41.3071 44.6554 41.2583C44.8993 41.1884 45.0197 40.955 45.0549 40.4844L45.0811 40.1325L45.3673 40.114L45.6533 40.0955L45.6718 39.8096C45.6901 39.5282 45.6942 39.5231 45.9361 39.4844C46.2391 39.4359 46.3016 39.3027 46.3016 38.7057V38.2809L46.5949 38.2621L46.8882 38.2432L46.919 37.9037C46.9454 37.6135 46.9695 37.5613 47.0844 37.545C47.3336 37.5095 47.5338 37.1003 47.5355 36.6226C47.5365 36.3659 47.5409 36.3602 47.745 36.3602C48.0644 36.3602 48.1029 36.2634 48.1391 35.3728L48.1716 34.5697H48.3973C48.7322 34.5697 48.7713 34.4951 48.7713 33.8563V33.291L48.972 33.2336C49.2975 33.1404 49.3545 32.9454 49.3784 31.8454L49.3994 30.8805L49.6527 30.8267C50.0217 30.748 50.0117 30.923 49.9926 24.8854C49.9737 18.9064 49.9946 19.2212 49.6161 19.1844C49.4992 19.173 49.4157 19.1282 49.4083 19.0728C49.4017 19.0219 49.3784 18.7924 49.3566 18.5629C49.3339 18.3231 49.2779 18.1064 49.225 18.0535C49.0959 17.9245 48.4431 17.928 48.3127 18.0586Z" fill="#A1A1A1"/>
</svg>
