<svg width="50" height="50" viewBox="0 0 50 50" fill="none" xmlns="http://www.w3.org/2000/svg">
<path fill-rule="evenodd" clip-rule="evenodd" d="M14.6512 0.0513458C14.4615 0.100288 14.3 0.272915 14.3 0.426924C14.3 0.507385 14.2534 0.527601 14.0375 0.540767L13.775 0.55686L13.7598 0.80955L13.7445 1.06224H13.5566C13.1064 1.06224 12.75 1.44141 12.75 1.92046V2.12035L12.5125 2.13657L12.275 2.1528L12.2601 2.42597C12.2463 2.67999 12.235 2.70127 12.0999 2.73C11.7729 2.79955 11.775 2.78107 11.775 5.55508C11.775 8.32909 11.7749 8.32736 12.0851 8.42192C12.2355 8.46767 12.2461 8.48735 12.2601 8.74297L12.275 9.01534L12.5125 9.03157L12.75 9.04779V9.26644C12.75 9.48508 12.7699 9.52272 13.034 9.80373C13.2981 10.0848 13.3335 10.1059 13.539 10.1059H13.7445L13.7598 10.3586L13.775 10.6113L14.031 10.6271C14.2713 10.642 14.2898 10.6533 14.3328 10.8133C14.4215 11.1431 14.4227 11.1433 17 11.1433C19.5773 11.1433 19.5785 11.1431 19.6672 10.8133C19.7102 10.6533 19.7287 10.642 19.969 10.6271L20.225 10.6113L20.2402 10.3586L20.2555 10.1059H20.461C20.6665 10.1059 20.7019 10.0848 20.966 9.80373C21.2301 9.52272 21.25 9.48508 21.25 9.26644V9.04779L21.4875 9.03157L21.725 9.01534L21.7399 8.74217C21.7538 8.48815 21.765 8.46687 21.9001 8.43814C22.2275 8.36845 22.225 8.39026 22.225 5.58407C22.225 2.77788 22.2275 2.79969 21.9001 2.73C21.765 2.70127 21.7538 2.67999 21.7399 2.42597L21.725 2.1528L21.4875 2.13657L21.25 2.12035V1.9017C21.25 1.68306 21.2301 1.64542 20.966 1.36441C20.7019 1.08339 20.6665 1.06224 20.461 1.06224H20.2555L20.2402 0.80955L20.225 0.55686L19.9683 0.541033C19.7295 0.526271 19.7095 0.514301 19.6825 0.370534C19.6175 0.0248797 19.6245 0.0258107 17.1022 0.0158361C15.8497 0.0107823 14.7467 0.0267417 14.6512 0.0513458ZM30.3926 0.0339234C30.3083 0.0577295 30.2519 0.204157 30.2506 0.402851C30.2501 0.504726 30.2124 0.518291 29.8403 0.551274C29.3686 0.593167 29.3 0.635194 29.3 0.882564C29.3 1.05612 29.2934 1.06224 29.1036 1.06224C28.863 1.06224 28.75 1.17156 28.75 1.4043C28.75 1.56669 28.735 1.58252 28.5397 1.62654C28.293 1.68226 28.2625 1.75435 28.255 2.29909L28.25 2.65818H28.06C27.7829 2.65818 27.75 2.72135 27.75 3.25293C27.75 3.71961 27.7499 3.72015 27.6125 3.75087C27.2519 3.8316 27.2401 3.89823 27.2596 5.74885C27.2764 7.35277 27.2802 7.37352 27.5662 7.40304L27.725 7.4194L27.7396 7.89539C27.7564 8.44346 27.7906 8.50996 28.0561 8.50996H28.25L28.255 8.86905C28.2625 9.41379 28.293 9.48588 28.5397 9.5416C28.735 9.58562 28.75 9.60145 28.75 9.76384C28.75 9.99658 28.863 10.1059 29.1036 10.1059C29.2844 10.1059 29.3 10.1176 29.3008 10.2522C29.3023 10.5282 29.4952 10.6295 30.0309 10.6356C30.2336 10.6379 30.2372 10.6413 30.2642 10.8551C30.2792 10.9745 30.3066 11.0882 30.3249 11.1077C30.3879 11.1748 35.1049 11.1786 35.1806 11.1116C35.2188 11.078 35.25 10.9576 35.25 10.8442V10.6379H35.6714C36.1546 10.6379 36.25 10.5802 36.25 10.2882C36.25 10.1125 36.257 10.1059 36.44 10.1059C36.6795 10.1059 36.75 10.0309 36.75 9.77607C36.75 9.57671 36.7527 9.57392 36.9439 9.57392C37.1769 9.57392 37.2374 9.50729 37.2588 9.22747C37.2738 9.03236 37.2878 9.01401 37.4338 8.99898C37.6609 8.97558 37.7005 8.89498 37.7341 8.38774C37.764 7.93768 37.7647 7.93569 37.9195 7.88847C38.2169 7.7979 38.225 7.73646 38.225 5.58407C38.225 3.4225 38.218 3.3705 37.9125 3.2774C37.753 3.22886 37.7499 3.22208 37.7441 2.90316C37.7334 2.31213 37.6908 2.22289 37.3875 2.15493C37.2669 2.12793 37.25 2.09947 37.25 1.92298C37.25 1.66923 37.1792 1.59422 36.94 1.59422C36.7534 1.59422 36.75 1.59063 36.75 1.39207C36.75 1.13725 36.6795 1.06224 36.44 1.06224C36.257 1.06224 36.25 1.05559 36.25 0.879904C36.25 0.58798 36.1546 0.530261 35.6714 0.530261H35.25V0.328108C35.25 0.216924 35.223 0.097229 35.19 0.0621183C35.1319 0.000275634 30.6058 -0.0263234 30.3926 0.0339234ZM14.3125 11.7371C14.2781 11.7518 14.25 11.8086 14.25 11.8634C14.25 12.0037 14.0182 12.2338 13.8769 12.2338C13.8116 12.2338 13.7509 12.2518 13.7416 12.2737C13.7325 12.2957 13.6578 12.3503 13.5756 12.395C13.2793 12.5567 13.283 12.986 13.5821 13.1382C13.719 13.2077 13.742 13.2504 13.7622 13.4719C13.7902 13.7775 13.7909 13.7783 14.0401 13.8138C14.2275 13.8405 14.2399 13.8537 14.265 14.0531C14.2978 14.3128 14.2959 14.3109 14.5459 14.3466C14.7426 14.3746 14.75 14.3828 14.75 14.5709C14.75 14.817 14.822 14.8937 15.0531 14.8937H15.2362L15.2624 15.2395C15.2926 15.6405 15.3969 15.8426 15.5953 15.8848C15.7321 15.9139 15.7368 15.9263 15.767 16.3432C15.8016 16.8211 15.8805 16.9684 16.1015 16.9684H16.2376L16.2588 17.9233C16.2823 18.9807 16.3166 19.0964 16.6077 19.0964C16.8346 19.0964 16.8296 19.7045 16.6022 19.7528C16.3239 19.8121 16.2779 19.9728 16.25 20.9825C16.2257 21.8639 16.222 21.8897 16.1161 21.9057C15.8956 21.9391 15.7519 22.2926 15.7507 22.8045C15.7499 23.1664 15.6236 23.3793 15.3889 23.4148C15.2913 23.4296 15.2729 23.468 15.2598 23.6847C15.2448 23.933 15.2416 23.9374 15.0759 23.9374C14.8609 23.9374 14.75 24.056 14.75 24.286C14.75 24.4409 14.73 24.4718 14.6125 24.4981C14.3925 24.5474 14.3291 24.6022 14.2965 24.7717C14.2515 25.0057 14.2096 25.0545 14.0531 25.0545C13.8144 25.0545 13.781 25.1565 13.7779 25.8969L13.775 26.5707L14.0099 26.5868L14.2448 26.6029L14.2599 26.8528L14.275 27.1027L14.5059 27.1186C14.7329 27.1342 14.7376 27.1383 14.7809 27.3556C14.8296 27.6002 14.9072 27.6463 15.2852 27.6559C15.5205 27.6619 15.7307 27.8348 15.7589 28.0455C15.7726 28.1491 15.809 28.169 16.0099 28.1827L16.2447 28.1988L16.2599 28.4487L16.275 28.6986L16.5099 28.7147L16.7447 28.7308L16.7599 28.9807C16.7727 29.1944 16.7915 29.2331 16.8889 29.2477C17.0211 29.2677 17.25 29.4932 17.25 29.6035C17.25 29.727 17.4233 29.7892 17.7681 29.7892C18.2261 29.7892 18.25 29.7535 18.25 29.0706C18.25 28.3631 18.2136 28.2585 17.9515 28.214L17.75 28.1797V25.7993V23.419L17.9515 23.3846C18.1991 23.3426 18.25 23.2289 18.25 22.7179V22.3566L18.4603 22.3091C18.7068 22.2535 18.7374 22.1812 18.745 21.6395L18.75 21.2833L18.9875 21.2671L19.225 21.2509L19.2402 20.9982L19.2555 20.7455H19.4428C19.6795 20.7455 19.75 20.6698 19.75 20.4157C19.75 20.2171 19.7534 20.2135 19.94 20.2135C20.1789 20.2135 20.25 20.1385 20.25 19.8866V19.6874L20.4875 19.6712L20.725 19.6549L20.7402 19.4022L20.7555 19.1496L21.0403 19.1433C21.574 19.1315 21.6597 19.0839 21.723 18.7639C21.7516 18.619 21.756 18.6176 22.151 18.6176C22.6065 18.6176 22.75 18.5283 22.75 18.2452V18.0856H23.4214C24.2831 18.0856 24.25 18.1175 24.25 17.2882C24.25 16.5879 24.2311 16.4897 24.0969 16.4897C23.8909 16.4897 23.75 16.2443 23.75 15.8855C23.75 15.464 23.6067 15.1201 23.396 15.0354C23.2639 14.9824 23.25 14.9536 23.25 14.7331C23.25 14.4374 23.1875 14.3617 22.9428 14.3617H22.7555L22.7402 14.109L22.725 13.8564L22.4901 13.8403L22.2553 13.8242L22.2401 13.5743L22.225 13.3244L21.9875 13.3082L21.75 13.2919V13.0886C21.75 12.8384 21.6861 12.7779 21.399 12.7562C21.213 12.7421 21.1724 12.7195 21.1595 12.6234C21.1294 12.3986 20.7975 12.2359 20.3659 12.2346C20.1499 12.234 20.1014 12.2159 20.0746 12.126C20.0569 12.0666 19.9823 11.9775 19.9088 11.9278C19.8351 11.8781 19.757 11.8069 19.735 11.7697C19.6951 11.702 14.4674 11.6706 14.3125 11.7371ZM29.95 11.7493C29.8538 11.7778 29.815 11.8367 29.7814 12.0051L29.7377 12.2237L29.298 12.2421C28.7946 12.2631 28.8006 12.2596 28.7645 12.546C28.7377 12.7586 28.7354 12.7606 28.5063 12.7764C28.3091 12.79 28.2726 12.8102 28.2589 12.9136C28.2351 13.0914 28.0358 13.2777 27.8314 13.3129C27.5026 13.3697 27.3854 13.4643 27.3062 13.736C27.2617 13.8887 27.1963 14.0004 27.1401 14.0193C27.0891 14.0366 27.0091 14.1146 26.9624 14.1928C26.9156 14.2712 26.8487 14.3543 26.8137 14.3777C26.7776 14.4018 26.75 14.5229 26.75 14.657V14.8937H26.56C26.299 14.8937 26.25 14.9666 26.25 15.3541C26.25 15.7188 26.1247 15.9315 25.8889 15.9671C25.7756 15.9841 25.7749 15.99 25.7614 16.9615C25.7444 18.177 25.6804 18.0856 26.5497 18.0856H27.2372L27.2695 18.3C27.3095 18.5669 27.4149 18.6176 27.9282 18.6176H28.3L28.3008 18.7639C28.3023 19.0409 28.4953 19.1413 29.0375 19.1473C29.2499 19.1496 29.25 19.1497 29.25 19.3517C29.25 19.6065 29.3205 19.6815 29.56 19.6815C29.743 19.6815 29.75 19.6882 29.75 19.8639C29.75 20.0937 29.8604 20.2135 30.072 20.2135C30.227 20.2135 30.2385 20.2264 30.2642 20.4307C30.2979 20.6972 30.2954 20.6946 30.5459 20.7303C30.7426 20.7584 30.75 20.7665 30.75 20.9547C30.75 21.2007 30.822 21.2775 31.0531 21.2775H31.2362L31.2624 21.6233C31.293 22.0284 31.397 22.2264 31.6022 22.2702C31.7401 22.2994 31.7501 22.318 31.7512 22.5476C31.7537 23.0867 31.8802 23.3522 32.1345 23.3522H32.25V24.3172C32.25 25.3902 32.3158 25.6684 32.6121 25.8488C32.7985 25.9622 32.788 26.0915 32.5875 26.1525C32.327 26.2319 32.282 26.3983 32.2518 27.3952C32.226 28.242 32.2212 28.2735 32.1177 28.2892C31.8322 28.3326 31.6475 29.362 31.8768 29.6316C32.0594 29.8462 32.5167 29.7797 32.7795 29.5002C32.9014 29.3705 33.0515 29.2568 33.113 29.2475C33.2082 29.2331 33.2272 29.1931 33.2401 28.9807L33.2552 28.7308L33.4901 28.7147L33.725 28.6986L33.7401 28.4487L33.7552 28.1988L33.9901 28.1827L34.225 28.1666L34.2402 27.9139L34.2555 27.6612L34.5653 27.655C35.1001 27.6441 35.1659 27.6138 35.2139 27.3551C35.2544 27.1376 35.2629 27.1293 35.443 27.1293C35.6789 27.1293 35.75 27.0535 35.75 26.8024V26.6031L35.9875 26.5869L36.225 26.5707L36.239 25.894C36.2546 25.1374 36.204 25.0013 35.9066 25.0013C35.7766 25.0013 35.7606 24.981 35.7357 24.7842C35.7021 24.5176 35.7046 24.5203 35.4541 24.4845C35.2574 24.4565 35.25 24.4483 35.25 24.2602C35.25 24.0124 35.1779 23.9374 34.94 23.9374C34.7501 23.9374 34.75 23.9372 34.7479 23.7113C34.7423 23.1344 34.6479 22.929 34.3875 22.9274C34.2518 22.9266 34.2499 22.9221 34.2441 22.5675C34.2343 21.9673 34.2076 21.8995 33.9622 21.8479L33.75 21.8032V19.4193V17.0352L33.9515 17.0009C34.1996 16.9587 34.25 16.8453 34.25 16.3297V15.9639L34.4622 15.9192C34.7056 15.868 34.7339 15.7984 34.7441 15.2262L34.75 14.8937H34.94C35.1795 14.8937 35.25 14.8187 35.25 14.5639C35.25 14.3692 35.2563 14.3617 35.4214 14.3617C35.6393 14.3617 35.75 14.2439 35.75 14.0121C35.75 13.8399 35.7595 13.8298 35.9214 13.8298C36.2254 13.8298 36.2546 13.7497 36.2389 12.96L36.225 12.2604L35.9935 12.2445C35.7656 12.2288 35.7615 12.2252 35.7301 12.0168C35.7059 11.8549 35.6682 11.7928 35.5709 11.7534C35.4254 11.6945 30.1484 11.6908 29.95 11.7493ZM6.525 12.8042C6.36963 12.8449 6.313 12.9145 6.27913 13.1067L6.24788 13.2842L5.85175 13.3087C5.40462 13.3362 5.32412 13.3834 5.278 13.6454C5.24775 13.8169 5.23238 13.8298 5.05775 13.8298C4.82113 13.8298 4.75 13.9053 4.75 14.1567V14.3559L4.5125 14.3721L4.275 14.3883L4.25975 14.641L4.2445 14.8937H4.05725C3.821 14.8937 3.75 14.9694 3.75 15.2212C3.75 15.4069 3.73788 15.4233 3.57675 15.4555C3.3305 15.5046 3.28613 15.5902 3.26025 16.0659L3.23725 16.4874L3.07037 16.5206C2.76512 16.5816 2.77625 16.4796 2.76075 19.3621C2.74488 22.3049 2.74138 22.2686 3.0485 22.3207L3.25 22.355V22.7171C3.25 23.2276 3.301 23.3426 3.546 23.3843C3.74188 23.4176 3.74525 23.422 3.76 23.6645L3.775 23.9108L4.00987 23.9269L4.24475 23.943L4.25987 24.1929L4.275 24.4428L4.50987 24.4589L4.74475 24.4749L4.75987 24.7248L4.775 24.9747L5.00625 24.9907C5.23537 25.0065 5.23775 25.0085 5.2645 25.2212C5.30063 25.5076 5.29412 25.5041 5.80412 25.5253L6.25 25.544L6.25075 25.7115C6.25225 26.0359 6.25325 26.0362 7.33563 26.0653C8.30025 26.0912 8.32538 26.0947 8.34025 26.206C8.406 26.6961 9.7 26.6658 9.7 26.1741C9.7 26.0682 9.72612 26.0653 10.665 26.0653C11.7336 26.0653 11.75 26.0604 11.75 25.7355V25.5333H12.19C12.6897 25.5333 12.75 25.4982 12.75 25.2064V25.0072L12.9875 24.991L13.225 24.9747L13.2401 24.7248L13.2552 24.4749L13.4901 24.4589L13.725 24.4428L13.7401 24.1929L13.7552 23.943L13.9901 23.9269L14.225 23.9108L14.2402 23.6581L14.2555 23.4054H14.4427C14.717 23.4054 14.75 23.3413 14.75 22.8096V22.3414H14.94C15.2454 22.3414 15.25 22.324 15.25 21.187C15.25 20.1881 15.2528 20.1603 15.3523 20.1603C15.8144 20.1603 15.8429 18.7836 15.3822 18.7136C15.2776 18.6978 15.2744 18.671 15.25 17.6447C15.2226 16.4906 15.223 16.4921 14.9125 16.4905L14.75 16.4897V16.0413C14.75 15.5284 14.6956 15.4257 14.4241 15.4257C14.2584 15.4257 14.2552 15.4213 14.2402 15.173L14.225 14.9203L13.9901 14.9042L13.7552 14.8881L13.7401 14.6382L13.725 14.3883L13.4901 14.3722L13.2552 14.3562L13.2401 14.1063L13.225 13.8564L12.9935 13.8404C12.7656 13.8247 12.7615 13.8211 12.7301 13.6127C12.691 13.352 12.5829 13.2978 12.1031 13.2978H11.7627L11.7305 13.0834C11.7059 12.9187 11.6686 12.8569 11.5709 12.8174C11.4423 12.7653 6.72075 12.7532 6.525 12.8042ZM38.525 12.8042C38.3696 12.8449 38.313 12.9145 38.2791 13.1067L38.2479 13.2842L37.8517 13.3087C37.4046 13.3362 37.3241 13.3834 37.278 13.6454C37.2477 13.8169 37.2324 13.8298 37.0578 13.8298C36.8211 13.8298 36.75 13.9053 36.75 14.1567V14.3559L36.5125 14.3721L36.275 14.3883L36.2598 14.641L36.2445 14.8937H36.0573C35.821 14.8937 35.75 14.9694 35.75 15.2212C35.75 15.4069 35.7379 15.4233 35.5768 15.4555C35.3305 15.5046 35.2861 15.5902 35.2603 16.0659L35.2373 16.4874L35.0704 16.5206C34.7651 16.5816 34.7762 16.4796 34.7607 19.3621C34.7449 22.3049 34.7414 22.2686 35.0485 22.3207L35.25 22.355V22.7171C35.25 23.2276 35.301 23.3426 35.546 23.3843C35.7419 23.4176 35.7452 23.422 35.76 23.6645L35.775 23.9108L36.0099 23.9269L36.2448 23.943L36.2599 24.1929L36.275 24.4428L36.5099 24.4589L36.7448 24.4749L36.7599 24.7248L36.775 24.9747L37.0062 24.9907C37.2354 25.0065 37.2377 25.0085 37.2645 25.2212C37.3006 25.5076 37.2941 25.5041 37.8041 25.5253L38.25 25.544L38.2508 25.7115C38.2523 26.0359 38.2532 26.0362 39.3356 26.0653C40.3002 26.0912 40.3254 26.0947 40.3402 26.206C40.406 26.6961 41.7 26.6658 41.7 26.1741C41.7 26.0682 41.7261 26.0653 42.665 26.0653C43.7336 26.0653 43.75 26.0604 43.75 25.7355V25.5333H44.19C44.6897 25.5333 44.75 25.4982 44.75 25.2064V25.0072L44.9875 24.991L45.225 24.9747L45.2401 24.7248L45.2552 24.4749L45.4901 24.4589L45.725 24.4428L45.7401 24.1929L45.7552 23.943L45.9901 23.9269L46.225 23.9108L46.2402 23.6581L46.2555 23.4054H46.4427C46.717 23.4054 46.75 23.3413 46.75 22.8096V22.3414H46.94C47.2454 22.3414 47.25 22.324 47.25 21.187C47.25 20.1881 47.2527 20.1603 47.3522 20.1603C47.8144 20.1603 47.8429 18.7836 47.3823 18.7136C47.2776 18.6978 47.2744 18.671 47.25 17.6447C47.2226 16.4906 47.223 16.4921 46.9125 16.4905L46.75 16.4897V16.0413C46.75 15.5284 46.6956 15.4257 46.4241 15.4257C46.2584 15.4257 46.2552 15.4213 46.2402 15.173L46.225 14.9203L45.9901 14.9042L45.7552 14.8881L45.7401 14.6382L45.725 14.3883L45.4901 14.3722L45.2552 14.3562L45.2401 14.1063L45.225 13.8564L44.9935 13.8404C44.7656 13.8247 44.7615 13.8211 44.7301 13.6127C44.691 13.352 44.5829 13.2978 44.1031 13.2978H43.7627L43.7305 13.0834C43.7059 12.9187 43.6686 12.8569 43.5709 12.8174C43.4422 12.7653 38.7208 12.7532 38.525 12.8042ZM22.525 19.188C22.3696 19.2287 22.313 19.2982 22.2791 19.4904L22.2479 19.668L21.8517 19.6924C21.4046 19.72 21.3241 19.7672 21.278 20.0292C21.2477 20.2006 21.2324 20.2135 21.0578 20.2135C20.8211 20.2135 20.75 20.2891 20.75 20.5404V20.7396L20.5125 20.7559L20.275 20.7721L20.2598 21.0248L20.2445 21.2775H20.0572C19.821 21.2775 19.75 21.3532 19.75 21.6049C19.75 21.7907 19.7379 21.8071 19.5767 21.8392C19.3305 21.8883 19.2861 21.974 19.2603 22.4497L19.2372 22.8712L19.0704 22.9044C18.7651 22.9653 18.7762 22.8633 18.7607 25.7458C18.7449 28.6886 18.7414 28.6523 19.0485 28.7044L19.25 28.7388V29.1009C19.25 29.6113 19.301 29.7264 19.546 29.768C19.7419 29.8014 19.7453 29.8058 19.76 30.0482L19.775 30.2945L20.0099 30.3106L20.2447 30.3267L20.2599 30.5766L20.275 30.8265L20.5099 30.8426L20.7447 30.8587L20.7599 31.1086L20.775 31.3585L21.0125 31.3747C21.2459 31.3907 21.25 31.394 21.25 31.5704C21.25 31.8592 21.3465 31.9171 21.8286 31.9171H22.25L22.2507 32.09C22.2522 32.4203 22.2509 32.4199 23.3356 32.4491C24.3002 32.475 24.3254 32.4785 24.3403 32.5898C24.406 33.0799 25.7 33.0495 25.7 32.5578C25.7 32.452 25.7261 32.4491 26.665 32.4491C27.7336 32.4491 27.75 32.4441 27.75 32.1192V31.9171H28.19C28.6898 31.9171 28.75 31.882 28.75 31.5902V31.3909L28.9875 31.3747L29.225 31.3585L29.2401 31.1086L29.2553 30.8587L29.4901 30.8426L29.725 30.8265L29.7401 30.5766L29.7553 30.3267L29.9901 30.3106L30.225 30.2945L30.2402 30.0418L30.2555 29.7892H30.4428C30.717 29.7892 30.75 29.7251 30.75 29.1933V28.7252H30.94C31.2454 28.7252 31.25 28.7078 31.25 27.5708C31.25 26.5719 31.2527 26.5441 31.3522 26.5441C31.8144 26.5441 31.8429 25.1673 31.3822 25.0974C31.2776 25.0815 31.2744 25.0548 31.25 24.0285C31.2226 22.8743 31.223 22.8758 30.9125 22.8742L30.75 22.8734V22.4251C30.75 21.9121 30.6956 21.8095 30.4241 21.8095C30.2584 21.8095 30.2552 21.8051 30.2402 21.5568L30.225 21.3041L29.9901 21.288L29.7553 21.2719L29.7401 21.022L29.725 20.7721L29.4901 20.756L29.2553 20.7399L29.2401 20.49L29.225 20.2401L28.9935 20.2242C28.7656 20.2085 28.7615 20.2049 28.7301 19.9965C28.691 19.7358 28.5829 19.6815 28.1031 19.6815H27.7628L27.7305 19.4671C27.7059 19.3025 27.6686 19.2407 27.5709 19.2012C27.4423 19.149 22.7207 19.1369 22.525 19.188ZM5.82963 26.6797C5.78588 26.7263 5.75 26.8465 5.75 26.9469V27.1293H5.30937C4.77987 27.1293 4.4725 27.2543 4.38312 27.5059C4.33337 27.6465 4.30625 27.6612 4.099 27.6612C3.82037 27.6612 3.75 27.7277 3.75 27.9911C3.75 28.1931 3.74987 28.1932 3.5375 28.1955C2.99525 28.2015 2.80225 28.3019 2.80075 28.5789C2.80013 28.6982 2.7775 28.7252 2.67825 28.7252C2.42275 28.7252 2.3035 28.8163 2.27038 29.0368C2.24125 29.2306 2.225 29.2479 2.04288 29.2789C1.83563 29.3141 1.75 29.441 1.75 29.7128C1.75 29.8184 1.72462 29.8425 1.6125 29.8432C1.35212 29.8447 1.25775 30.0501 1.25213 30.627C1.25 30.853 1.24987 30.8531 1.06 30.8531C0.8125 30.8531 0.75 30.928 0.75 31.2244C0.75 31.4449 0.736125 31.4738 0.604 31.5267C0.3675 31.6218 0.25 31.9489 0.25 32.5122C0.25 32.9768 0.248875 32.981 0.125 32.981H0V37.2369V41.4927H0.118625C0.2185 41.4927 0.24225 41.5266 0.2695 41.7071C0.309375 41.9732 0.415 42.0247 0.921 42.0247H1.2855L1.332 42.1976C1.40763 42.4783 1.565 42.5271 2.46038 42.5479L3.24587 42.566L3.287 42.7872C3.32187 42.9751 3.3505 43.0135 3.4765 43.0422C3.79688 43.1153 14.1138 43.0912 14.3141 43.017C14.7116 42.8697 14.7483 42.7112 14.7493 41.1336L14.75 39.8968H14.9214C15.2101 39.8968 15.25 39.8062 15.25 39.1507C15.25 38.5209 15.3285 38.3341 15.6111 38.2914C15.716 38.2756 15.7261 38.2439 15.7397 37.8887C15.7556 37.4691 15.871 37.2637 16.1111 37.2274C16.2083 37.2128 16.2272 37.174 16.24 36.9642C16.2549 36.7205 16.2567 36.7179 16.4566 36.6895C16.7071 36.6537 16.7064 36.6545 16.7367 36.3676C16.759 36.1578 16.7791 36.1262 16.9184 36.0838C17.1143 36.0241 17.212 35.8218 17.2404 35.4175L17.2616 35.1143L17.4934 35.0983L17.725 35.0824L17.7401 34.8325L17.7553 34.5826L17.9901 34.5665L18.225 34.5504L18.239 33.933C18.2565 33.164 18.2208 33.0475 17.9533 33.002L17.7535 32.968L17.7393 32.4558L17.725 31.9437L17.4875 31.9275L17.25 31.9112V31.446C17.25 30.9164 17.2169 30.8531 16.94 30.8531H16.75V30.5903C16.75 30.4458 16.7275 30.3126 16.7 30.2945C16.6725 30.2765 16.65 30.2189 16.65 30.1666C16.65 30.0533 16.5136 29.914 16.3762 29.8873C16.3039 29.8732 16.268 29.8078 16.2412 29.6415C16.1925 29.3376 16.175 29.3158 15.9489 29.2774C15.7674 29.2465 15.7505 29.2286 15.7128 29.0248C15.6736 28.8143 15.6624 28.8035 15.436 28.7595C15.2226 28.7181 15.2 28.6997 15.2 28.5681C15.2 28.3371 15.0626 28.2507 14.6336 28.2121L14.25 28.1777V27.9832C14.25 27.7221 14.1779 27.6612 13.8684 27.6612C13.6495 27.6612 13.6015 27.6435 13.5746 27.5534C13.5569 27.4941 13.4822 27.405 13.4087 27.3552C13.3351 27.3055 13.257 27.2343 13.235 27.1971C13.2072 27.15 13.0523 27.1293 12.7291 27.1293H12.2631L12.2358 26.9121C12.2208 26.7926 12.1934 26.6789 12.175 26.6594C12.0928 26.5717 5.91263 26.5914 5.82963 26.6797ZM37.8926 26.6329C37.8071 26.6571 37.7519 26.8036 37.7506 27.0096C37.75 27.1251 37.734 27.1293 37.2775 27.1293C36.949 27.1293 36.7927 27.1499 36.765 27.1971C36.743 27.2343 36.6649 27.3055 36.5913 27.3552C36.5178 27.405 36.4431 27.4941 36.4254 27.5534C36.3985 27.6435 36.3505 27.6612 36.1316 27.6612C35.8221 27.6612 35.75 27.7221 35.75 27.9832V28.1777L35.3664 28.2121C34.9374 28.2507 34.8 28.3371 34.8 28.5681C34.8 28.6997 34.7774 28.7181 34.564 28.7595C34.3376 28.8035 34.3264 28.8143 34.2873 29.0248C34.2495 29.2286 34.2326 29.2465 34.0511 29.2774C33.825 29.3158 33.8075 29.3376 33.7588 29.6415C33.732 29.8078 33.6961 29.8732 33.6237 29.8873C33.4864 29.914 33.35 30.0533 33.35 30.1666C33.35 30.2189 33.3275 30.2765 33.3 30.2945C33.2725 30.3126 33.25 30.4458 33.25 30.5903V30.8531H33.06C32.799 30.8531 32.75 30.926 32.75 31.3135C32.75 31.6782 32.6247 31.8909 32.3889 31.9265C32.2805 31.9429 32.2742 31.9685 32.2607 32.4558L32.2465 32.968L32.0467 33.002C31.7792 33.0475 31.7435 33.164 31.761 33.933L31.775 34.5504L32.0099 34.5665L32.2448 34.5826L32.2599 34.8325L32.275 35.0824L32.5125 35.0986L32.75 35.1148V35.3486C32.75 35.4803 32.7779 35.601 32.8138 35.625C32.8488 35.6484 32.9156 35.7315 32.9624 35.8098C33.0091 35.888 33.0899 35.9664 33.1419 35.9839C33.2119 36.0076 33.244 36.0847 33.266 36.2818C33.304 36.6232 33.3129 36.6356 33.5476 36.6779C33.7414 36.7127 33.7451 36.7177 33.7599 36.9618L33.775 37.2103L34.0125 37.2265L34.25 37.2427V37.7079C34.25 38.2351 34.2836 38.3008 34.5534 38.3008H34.7368L34.7601 38.9896C34.7857 39.7446 34.8152 39.8279 35.0662 39.8538L35.225 39.8702L35.25 41.1203C35.2779 42.5127 35.2701 42.4763 35.5489 42.5237C35.7426 42.5567 35.75 42.5653 35.75 42.7595C35.75 43.1114 35.3818 43.0892 41.1225 43.0824C47.0066 43.0754 46.656 43.0938 46.713 42.7872L46.7541 42.566L47.5396 42.5479C48.435 42.5271 48.5924 42.4783 48.668 42.1976L48.7145 42.0247H49.079C49.585 42.0247 49.6906 41.9732 49.7305 41.7071C49.7577 41.5266 49.7815 41.4927 49.8814 41.4927H50V37.2369V32.981H49.875C49.7511 32.981 49.75 32.9768 49.75 32.5122C49.75 31.9489 49.6325 31.6218 49.396 31.5267C49.2639 31.4738 49.25 31.4449 49.25 31.2244C49.25 30.93 49.1874 30.8531 48.9474 30.8531H48.7646L48.7323 30.445C48.6958 29.9857 48.6149 29.8424 48.3923 29.8424C48.2749 29.8424 48.25 29.8197 48.25 29.7128C48.25 29.441 48.1644 29.3141 47.9571 29.2789C47.775 29.2479 47.7588 29.2306 47.7296 29.0368C47.6965 28.8163 47.5773 28.7252 47.3218 28.7252C47.2213 28.7252 47.2 28.6987 47.2 28.5738C47.2 28.337 47.0653 28.2509 46.6336 28.2121L46.25 28.1777V27.9832C46.25 27.7279 46.1778 27.6612 45.901 27.6612C45.6938 27.6612 45.6666 27.6465 45.6169 27.5059C45.5275 27.2543 45.2201 27.1293 44.6906 27.1293H44.25V26.9469C44.25 26.5776 44.4282 26.5966 41.0339 26.6034C39.3515 26.6069 37.9379 26.6202 37.8926 26.6329ZM21.9134 33.0349C21.8338 33.0695 21.7926 33.1448 21.7695 33.2981L21.7372 33.513H21.3036C20.8098 33.513 20.75 33.5487 20.75 33.8428V34.045H20.31C19.8094 34.045 19.75 34.08 19.75 34.3748C19.75 34.5766 19.7495 34.577 19.5417 34.577C19.4271 34.577 19.2977 34.6112 19.2542 34.653C18.9707 34.9254 18.9126 34.9887 18.8949 35.0447C18.884 35.0792 18.7671 35.1288 18.6353 35.155C18.3461 35.2123 18.3423 35.2159 18.304 35.4667C18.2764 35.6477 18.2564 35.669 18.0863 35.6984C17.8505 35.7391 17.8471 35.7432 17.7932 36.0508C17.7686 36.1911 17.722 36.3155 17.6896 36.3271C17.637 36.3459 17.5775 36.4078 17.3215 36.7094C17.2821 36.7557 17.25 36.8933 17.25 37.0153C17.25 37.2363 17.2496 37.2369 17.06 37.2369C16.7829 37.2369 16.75 37.3 16.75 37.8327V38.3008H16.56C16.2835 38.3008 16.25 38.3644 16.25 38.8899V39.3512L16.0485 39.3855C15.7409 39.4378 15.75 39.3056 15.75 43.7198C15.75 48.1179 15.7324 47.8765 16.0536 47.8765C16.2294 47.8765 16.2386 47.8856 16.2695 48.0909C16.3094 48.357 16.415 48.4085 16.921 48.4085H17.2855L17.332 48.5813C17.4075 48.8618 17.5654 48.9109 18.4568 48.9315L19.2386 48.9496L19.2701 49.1595C19.3174 49.4737 19.3057 49.4724 21.901 49.4724H24.2455L24.278 49.6567C24.3246 49.921 24.4073 49.9681 24.8661 49.9915C25.5068 50.0242 25.6634 49.9699 25.714 49.6978L25.7554 49.4753L28.1985 49.4606C29.5422 49.4525 30.6568 49.4299 30.6751 49.4103C30.6934 49.3908 30.7208 49.277 30.7358 49.1576L30.7631 48.9404L31.4691 48.9382C32.5219 48.9347 32.6975 48.8807 32.6992 48.5599L32.7 48.4187L33.1709 48.4003C33.7078 48.3793 33.6993 48.3838 33.7355 48.0963C33.7623 47.8837 33.7646 47.8817 33.9938 47.8658L34.225 47.8499L34.2397 47.5548C34.2532 47.2822 34.2658 47.2551 34.4031 47.1999C34.7143 47.0749 34.725 46.9858 34.725 44.5173C34.725 42.0562 34.728 42.0779 34.3923 42.0779H34.25V40.7852C34.25 39.3592 34.2512 39.3648 33.94 39.3648H33.75L33.7492 38.8993C33.7482 38.2548 33.6234 37.9015 33.3839 37.8651C33.2909 37.851 33.2714 37.8061 33.25 37.5561L33.225 37.2635L32.9875 37.2472L32.75 37.231L32.7479 37.0079C32.7423 36.4339 32.6475 36.2285 32.3875 36.2269C32.2754 36.2262 32.25 36.2022 32.25 36.0966C32.25 35.8247 32.1644 35.6979 31.9571 35.6626C31.775 35.6316 31.7588 35.6143 31.7296 35.4206C31.6965 35.2001 31.5773 35.109 31.3218 35.109C31.2279 35.109 31.2 35.0808 31.2 34.9861C31.2 34.7191 30.9504 34.5811 30.4625 34.5783L30.25 34.577V34.3748C30.25 34.0971 30.1815 34.045 29.8172 34.045C29.4745 34.045 29.2746 33.9117 29.2411 33.6608C29.2258 33.5455 29.2015 33.5388 28.7439 33.5245L28.2628 33.5093L28.2355 33.294C28.2206 33.1756 28.1934 33.0627 28.175 33.0431C28.1231 32.9878 22.0405 32.9798 21.9134 33.0349Z" fill="#A1A1A1"/>
</svg>
