<svg width="56" height="56" viewBox="0 0 56 56" fill="none" xmlns="http://www.w3.org/2000/svg">
<circle cx="28" cy="28" r="28" fill="#FDBDB9"/>
<path d="M36.7097 16.2722C40.5202 18.9939 43 23.4456 43 28.4839C43 36.7581 36.2984 43.4657 28.0302 43.4839C19.7742 43.502 13.0121 36.7702 13 28.5081C12.994 23.4698 15.4738 19.006 19.2782 16.2782C19.9859 15.7762 20.9718 15.9879 21.3952 16.744L22.3508 18.4435C22.7077 19.0786 22.5383 19.8831 21.9516 20.3185C19.4415 22.1814 17.8387 25.1331 17.8387 28.4778C17.8327 34.0605 22.3448 38.6452 28 38.6452C33.5403 38.6452 38.1976 34.1573 38.1613 28.4173C38.1431 25.2843 36.6673 22.2601 34.0423 20.3125C33.4556 19.877 33.2923 19.0726 33.6492 18.4435L34.6048 16.744C35.0282 15.994 36.0081 15.7702 36.7097 16.2722ZM30.4194 28.9677V14.4516C30.4194 13.6472 29.7722 13 28.9677 13H27.0323C26.2278 13 25.5807 13.6472 25.5807 14.4516V28.9677C25.5807 29.7722 26.2278 30.4193 27.0323 30.4193H28.9677C29.7722 30.4193 30.4194 29.7722 30.4194 28.9677Z" fill="#FF2A1D"/>
</svg>
