<svg width="50" height="50" viewBox="0 0 50 50" fill="none" xmlns="http://www.w3.org/2000/svg">
<path fill-rule="evenodd" clip-rule="evenodd" d="M2.91843 0.0914884C2.86957 0.136169 2.8296 0.249358 2.8296 0.342992V0.513166L2.36665 0.548521C1.83676 0.589057 1.75626 0.630759 1.75626 0.864261C1.75626 1.02213 1.742 1.03417 1.52352 1.06111C1.23414 1.09673 1.19008 1.13649 1.15195 1.39719C1.12596 1.57526 1.09828 1.60971 0.961287 1.63483C0.716396 1.67977 0.610898 1.87675 0.581382 2.34415C0.559632 2.68812 0.538589 2.75766 0.448344 2.78395C0.38931 2.80118 0.297512 2.87759 0.24441 2.95374C0.191166 3.03002 0.115609 3.12313 0.0763476 3.16082C-0.0137563 3.2472 -0.0301389 33.7977 0.0598238 34.0145C0.101627 34.1154 0.167581 34.1543 0.339457 34.1795C0.560762 34.212 0.564575 34.2162 0.58124 34.4523L0.598188 34.6922L0.866522 34.708L1.13486 34.7238V34.9178C1.13486 35.0245 1.16536 35.1398 1.20265 35.174C1.3032 35.2662 4.44413 35.2625 4.5074 35.1701C4.53225 35.1338 4.62052 35.0645 4.70371 35.0161C4.78675 34.9677 4.87106 34.8809 4.89112 34.8231C4.91103 34.7654 4.96385 34.7181 5.00834 34.7181C5.05282 34.7181 5.08926 34.6847 5.08926 34.6439C5.08926 34.6031 5.14081 34.5547 5.2038 34.5364C5.26679 34.518 5.36141 34.4407 5.41423 34.3645C5.46705 34.2883 5.54261 34.2073 5.58215 34.1845C5.64019 34.1511 5.65418 31.3372 5.65418 19.6667V5.19034H19.039C33.4963 5.19034 32.691 5.20834 32.7476 4.88366C32.7831 4.68072 32.7877 4.67723 33.0452 4.66194L33.3068 4.6464L33.324 4.40034L33.3412 4.15427H33.5528C33.6692 4.15427 33.7948 4.1263 33.8321 4.09211C33.9327 3.9999 33.9287 1.11965 33.8279 1.06163C33.7884 1.03884 33.7128 0.957895 33.66 0.881615C33.6072 0.805464 33.5125 0.728148 33.4495 0.709758C33.3866 0.691498 33.335 0.643062 33.335 0.602267C33.335 0.561472 33.2986 0.528059 33.2541 0.528059C33.2096 0.528059 33.1568 0.480788 33.1369 0.423028C33.1168 0.365268 33.0325 0.278498 32.9495 0.230062C32.8663 0.181626 32.778 0.112339 32.7531 0.076077C32.6772 -0.0350406 3.03961 -0.0197587 2.91843 0.0914884ZM13.789 8.3445C13.6796 8.3726 13.6363 8.4301 13.5973 8.59872L13.5469 8.81655H12.7964C11.9534 8.81655 11.8682 8.8475 11.8682 9.15418C11.8682 9.32591 11.8636 9.32914 11.5999 9.34468L11.3316 9.36048L11.3145 9.60383L11.2974 9.84717L11.032 9.86284L10.7667 9.87851L10.7496 10.1219L10.7325 10.3652L10.4671 10.3809L10.2017 10.3965L10.1847 10.6685C10.1677 10.9389 10.1666 10.9405 9.97973 10.9405C9.87395 10.9405 9.758 10.9779 9.71436 11.0261C9.61013 11.1412 9.56748 45.4113 9.67143 45.526C9.70659 45.5649 9.83398 45.5967 9.95445 45.5967H10.1735V46.0526C10.1735 46.5713 10.2106 46.6328 10.5237 46.6328C10.7346 46.6328 10.7384 46.6363 10.7384 46.8297C10.7384 47.0778 10.8181 47.1508 11.0887 47.1508C11.2995 47.1508 11.3033 47.1543 11.3033 47.3477C11.3033 47.6348 11.3704 47.6689 11.936 47.6689H12.4332V47.8657C12.4332 48.2106 11.851 48.1869 20.342 48.1869C28.8261 48.1869 28.2508 48.2101 28.2508 47.8686V47.6746L28.5191 47.6588L28.7874 47.643L28.8044 47.4031C28.8211 47.167 28.8249 47.1627 29.0462 47.1302C29.3973 47.0788 29.3806 47.4737 29.3806 39.2216V31.6099H29.5742C29.8838 31.6099 29.9455 31.5108 29.9455 31.0133V30.5795L30.2139 30.5637L30.4822 30.5479L30.4993 30.3046L30.5164 30.0613L30.7817 30.0456L31.0471 30.0299L31.0643 29.7838L31.0816 29.5378H31.4702C32.0179 29.5378 32.1384 29.4856 32.1831 29.2285L32.2196 29.0198H38.0762C44.477 29.0198 44.0684 29.0416 44.0684 28.6986V28.5017H44.5445C45.1015 28.5017 45.1982 28.4476 45.1982 28.1353C45.1982 27.9388 45.2047 27.9319 45.389 27.9319C45.7603 27.9319 45.7333 28.55 45.7501 19.6551C45.7669 10.8187 45.7907 11.4067 45.4173 11.4067H45.1982V10.9508C45.1982 10.4331 45.1609 10.3706 44.8511 10.3706H44.6395L44.6223 10.1246L44.6051 9.87851L44.3397 9.86284L44.0743 9.84717L44.0572 9.60383L44.0401 9.36048L43.7786 9.34494C43.5221 9.32966 43.5163 9.32539 43.4819 9.12776C43.434 8.85346 43.4115 8.84608 42.5431 8.81655L41.7805 8.79065L41.7631 8.62618C41.7535 8.53565 41.7052 8.43075 41.6555 8.39306C41.5571 8.31808 14.078 8.27016 13.789 8.3445ZM24.2964 14.1937C24.2964 14.4418 24.376 14.5149 24.6466 14.5149C24.8534 14.5149 24.8613 14.5214 24.8613 14.6924C24.8613 14.9182 24.9864 15.0329 25.2326 15.0329C25.4224 15.0329 25.4262 15.0373 25.4286 15.2531C25.435 15.8149 25.5416 16.0148 25.8358 16.0164L25.9911 16.0172V16.5545V17.0918L25.7635 17.1252C25.4828 17.1663 25.4262 17.2766 25.4262 17.7819V18.1411H25.2115C24.9409 18.1411 24.8613 18.2141 24.8613 18.4623V18.6591H24.6099C24.4675 18.6591 24.3389 18.6878 24.3133 18.7252C24.2885 18.7614 24.2002 18.8307 24.117 18.8792C24.034 18.9276 23.9497 19.0144 23.9296 19.0721C23.895 19.1722 23.8478 19.1772 22.9368 19.1772H21.9802V19.0298C21.9802 18.7995 21.8278 18.7153 21.3431 18.6778L20.9124 18.6444L20.8956 18.4057L20.8786 18.167L20.6103 18.1512L20.342 18.1354V17.7022C20.342 17.203 20.3136 17.105 20.169 17.105C19.9194 17.105 19.7771 16.869 19.7771 16.4552V16.069H19.9707C20.2807 16.069 20.342 15.9702 20.342 15.4695V15.0329H20.5566C20.8265 15.0329 20.9069 14.9599 20.9069 14.7146V14.5206L21.1752 14.5048L21.4436 14.489L21.4608 14.2429L21.478 13.9969H22.8872H24.2964V14.1937ZM23.7535 22.4941C23.8035 22.781 23.8964 22.8034 25.0344 22.8034H25.9911V22.9809C25.9911 23.2652 26.0989 23.3214 26.6449 23.3214H27.1209V23.5183C27.1209 23.7664 27.2006 23.8394 27.4712 23.8394C27.678 23.8394 27.6859 23.8459 27.6859 24.017C27.6859 24.2427 27.811 24.3575 28.0571 24.3575H28.2508V24.8755V25.3935H28.0361C27.7655 25.3935 27.6859 25.4666 27.6859 25.7147V25.9116H22.8872H18.0885L18.0713 25.6655L18.0541 25.4194L17.7857 25.4036L17.5174 25.3878V24.8727V24.3575H17.7321C18.0027 24.3575 18.0823 24.2844 18.0823 24.0363C18.0823 23.8429 18.0861 23.8394 18.297 23.8394C18.5676 23.8394 18.6472 23.7664 18.6472 23.5183V23.3214H19.1443C19.71 23.3214 19.7771 23.2874 19.7771 23.0002V22.8034H20.7736C21.8821 22.8034 22.1816 22.7331 22.3717 22.4282C22.46 22.2866 22.4629 22.286 23.0887 22.2857L23.717 22.2854L23.7535 22.4941ZM34.6908 32.1742C34.5818 32.202 34.5383 32.2593 34.4997 32.4255C34.4509 32.6372 34.4455 32.6412 34.189 32.6563L33.9282 32.6719L33.9111 32.9152L33.894 33.1586L33.6286 33.1742L33.3633 33.1899L33.3466 33.4773C33.3313 33.7423 33.3171 33.7692 33.1631 33.8224C32.8918 33.9163 32.7701 34.2502 32.7701 34.9003C32.7701 35.5888 32.8113 35.6906 33.1073 35.7339L33.335 35.7674V36.2166C33.335 36.7283 33.3729 36.7902 33.6853 36.7902C33.897 36.7902 33.8999 36.7931 33.8999 36.9911C33.8999 37.1016 33.9347 37.2184 33.977 37.2506C34.0621 37.3154 49.5623 37.3125 49.6328 37.2478C49.6536 37.2287 49.6845 37.118 49.7014 37.0017C49.7278 36.8218 49.7524 36.7902 49.8663 36.7902H50V34.9771V33.164H49.8619C49.7372 33.164 49.7221 33.14 49.7065 32.9179L49.6893 32.6719L49.3927 32.6562C49.1127 32.6414 49.0961 32.6328 49.0953 32.5008C49.094 32.2918 49.0224 32.2244 48.75 32.1762C48.4558 32.1241 34.8952 32.1222 34.6908 32.1742ZM34.0845 38.9154C33.9943 38.9487 33.9481 39.0214 33.922 39.1711C33.8879 39.3665 33.8732 39.3804 33.699 39.3804C33.3977 39.3804 33.335 39.4823 33.335 39.9725V40.4017L33.0975 40.4479C32.8038 40.505 32.7825 40.5619 32.7781 41.2971C32.7731 42.1773 32.8701 42.4368 33.2045 42.4368C33.3237 42.4368 33.3354 42.4603 33.3392 42.7087C33.3484 43.2884 33.532 43.4732 34.14 43.5148L34.4648 43.537V43.7277C34.4648 44.0648 33.9499 44.0426 41.7877 44.0426C49.7555 44.0426 49.1526 44.0702 49.1526 43.705C49.1526 43.5333 49.1573 43.5301 49.421 43.5145L49.6893 43.4987L49.7065 43.2526C49.7221 43.0305 49.7372 43.0066 49.8619 43.0066H50V41.1935V39.3804H49.8305C49.6835 39.3804 49.6609 39.3615 49.6602 39.2379C49.6589 39.026 49.5882 38.9589 49.3149 38.9106C48.9803 38.8513 34.2457 38.856 34.0845 38.9154ZM34.6908 45.1249C34.5818 45.1528 34.5383 45.21 34.4997 45.3763C34.4509 45.5879 34.4455 45.5919 34.189 45.6071L33.9282 45.6226L33.9111 45.866L33.894 46.1093L33.6286 46.125L33.3633 46.1407L33.3466 46.4281C33.3313 46.693 33.3171 46.72 33.1631 46.7732C32.8918 46.8671 32.7701 47.201 32.7701 47.8511C32.7701 48.5395 32.8113 48.6413 33.1073 48.6847L33.335 48.7181V49.1674C33.335 49.6791 33.3729 49.741 33.6853 49.741C33.8766 49.741 33.8999 49.7551 33.8999 49.8705V50H41.8087H49.7175V49.8705C49.7175 49.7669 49.7458 49.741 49.8588 49.741H50V47.9279V46.1148H49.8619C49.7372 46.1148 49.7221 46.0908 49.7065 45.8687L49.6893 45.6226L49.3927 45.607C49.1127 45.5922 49.0961 45.5835 49.0953 45.4516C49.094 45.2425 49.0224 45.1752 48.75 45.127C48.4558 45.0748 34.8952 45.073 34.6908 45.1249Z" fill="#A1A1A1"/>
</svg>
