<svg width="50" height="50" viewBox="0 0 50 50" fill="none" xmlns="http://www.w3.org/2000/svg">
<path fill-rule="evenodd" clip-rule="evenodd" d="M36.7104 0.0431491C36.5964 0.074192 36.5516 0.137571 36.5109 0.324978C36.4609 0.5555 36.4485 0.56671 36.2432 0.56671C35.9699 0.56671 35.8869 0.649778 35.8869 0.923127C35.8869 1.1377 35.883 1.14158 35.6634 1.14158C35.3824 1.14158 35.2987 1.22263 35.2987 1.49483V1.71012L35.0193 1.72765L34.7399 1.74519L34.7221 2.01523L34.7043 2.28528L34.428 2.30267L34.1517 2.32006L34.1339 2.5901L34.1161 2.86014L33.8398 2.87753L33.5635 2.89492L33.5457 3.16497L33.528 3.43501L33.2516 3.4524C33.0153 3.4672 32.9725 3.48876 32.9564 3.60072C32.9318 3.76987 32.6796 4.01591 32.5307 4.01591C32.467 4.01591 32.3558 4.04581 32.2835 4.08231C32.2111 4.11882 32.1139 4.16581 32.0676 4.18679C31.98 4.22632 31.9182 4.31829 31.8638 4.49018C31.8344 4.58345 31.6845 4.59078 29.8127 4.59078C27.7671 4.59078 27.6521 4.60199 27.6521 4.8009C27.6521 5.00986 27.3641 5.16033 26.9314 5.17743L26.5051 5.19439L26.4872 5.46745L26.4693 5.74052H26.2275C25.9858 5.74052 25.9441 5.76337 25.6334 6.06704C25.3224 6.371 25.2993 6.41139 25.2993 6.65082C25.2993 6.88522 25.2951 6.89025 25.0977 6.89025C24.6867 6.89025 24.7111 6.61733 24.7111 11.2232C24.7111 15.7658 24.6897 15.5133 25.0758 15.5133C25.2989 15.5133 25.2993 15.5138 25.2993 15.7527C25.2993 15.9921 25.3224 16.0325 25.6334 16.3365C25.9441 16.6401 25.9858 16.663 26.2275 16.663H26.4693L26.4872 16.9361L26.5051 17.2091L27.0786 17.2255L27.6521 17.242V17.4583C27.6521 17.8219 27.5962 17.8127 29.8023 17.8127H31.8113L31.866 17.9996C31.9255 18.2025 32.1048 18.3159 32.4535 18.3712C32.6939 18.4093 32.9284 18.6107 32.9564 18.8028C32.9725 18.9148 33.0153 18.9363 33.2516 18.9511L33.528 18.9685L33.5457 19.2386L33.5635 19.5086L33.8398 19.526L34.1161 19.5434L34.1339 19.8134L34.1517 20.0835L34.428 20.1009L34.7043 20.1182L34.7221 20.3883L34.7399 20.6583L35.0193 20.6759L35.2987 20.6934V20.9087C35.2987 21.1809 35.3824 21.2619 35.6634 21.2619C35.883 21.2619 35.8869 21.2658 35.8869 21.4804C35.8869 21.7618 35.9699 21.8368 36.281 21.8368C36.5175 21.8368 36.5339 21.847 36.5348 21.9949C36.537 22.372 36.7028 22.4064 38.5338 22.4078C40.2847 22.4092 40.5337 22.3553 40.5337 21.9746C40.5337 21.8707 40.5769 21.8398 40.7656 21.8086C41.1057 21.7524 41.1459 21.6715 41.1716 20.9918C41.1956 20.3605 41.235 20.2699 41.5686 20.078C41.7563 19.9701 41.757 19.9362 41.763 11.2233C41.7691 2.38962 41.7688 2.37481 41.5836 2.31732C41.279 2.22276 41.1812 2.0273 41.1738 1.49828C41.1628 0.713157 41.1426 0.663 40.8127 0.604076C40.5799 0.562542 40.5337 0.533367 40.5337 0.427736C40.5337 0.232281 40.4058 0.105522 40.1498 0.0476043C39.8815 -0.0131879 36.932 -0.0169245 36.7104 0.0431491ZM44.5738 3.49954C44.3345 3.56967 44.2476 3.65734 44.1823 3.89447C44.1397 4.04926 44.0783 4.12169 43.9498 4.16912C43.6006 4.29789 43.5285 4.59021 43.5469 5.80174C43.5628 6.85547 43.5637 6.86165 43.6969 6.88005C43.9744 6.91856 44.1217 7.14837 44.1217 7.54244C44.1217 7.96123 44.1794 8.03999 44.4864 8.03999H44.7099L44.7168 8.68671C44.7268 9.61053 44.744 9.66427 45.0484 9.72305L45.2981 9.77134V11.1976V12.6238L45.058 12.6553C44.733 12.6979 44.742 12.6776 44.7195 13.422C44.698 14.1365 44.6102 14.3286 44.2851 14.3737C44.1679 14.39 44.1489 14.4299 44.1333 14.6941C44.1166 14.9791 44.1067 14.9959 43.9569 14.9967C43.5872 14.9988 43.5397 15.1842 43.536 16.6371C43.5332 17.7869 43.5412 17.8127 43.895 17.8127H44.1153L44.1332 18.0858L44.1511 18.3589L44.4305 18.3764L44.7099 18.3939V18.6092C44.7099 18.9537 44.739 18.9625 45.8871 18.9625C47.0689 18.9625 47.3662 18.8867 47.4951 18.5532C47.5346 18.451 47.614 18.3725 47.6942 18.3566C47.7674 18.342 47.8906 18.3175 47.968 18.3018C48.1434 18.2666 48.1743 18.188 48.2199 17.6605L48.2563 17.2379H48.4494C48.762 17.2379 48.8273 17.1243 48.8273 16.5802V16.1032L49.0675 16.0717C49.3955 16.0288 49.3838 16.0601 49.4051 15.1709L49.4242 14.378L49.6673 14.3277C50.0031 14.258 49.9912 14.3736 49.9978 11.1053C50.0043 7.90374 50.0212 8.03999 49.6171 8.03999H49.4155V7.24667C49.4155 6.3608 49.3977 6.31538 49.0508 6.31538H48.8273V5.8095C48.8273 5.23578 48.7882 5.16565 48.4685 5.16565H48.2509L48.2303 4.65301C48.2068 4.06751 48.2103 4.07412 47.8975 4.03316C47.6784 4.00442 47.6615 3.98832 47.627 3.77749C47.599 3.60647 47.5542 3.53906 47.4402 3.49681C47.258 3.42898 44.8059 3.43142 44.5738 3.49954ZM5.69139 8.09604C5.43699 8.14404 5.36156 8.2261 5.36023 8.45677L5.35935 8.61485H4.51823C3.5799 8.61485 3.53593 8.63081 3.53593 8.97127V9.18972H3.04023C2.47173 9.18972 2.35953 9.25209 2.35953 9.56755C2.35953 9.7574 2.3513 9.76459 2.13602 9.76459C1.85427 9.76459 1.77133 9.84565 1.77133 10.121C1.77133 10.3356 1.76736 10.3395 1.54782 10.3395C1.25989 10.3395 1.18313 10.4205 1.18313 10.7246C1.18313 10.9596 1.1746 10.9718 1.01094 10.9718C0.753747 10.9718 0.667723 11.097 0.625961 11.5317C0.605374 11.7454 0.583464 11.9721 0.577141 12.0353C0.570083 12.105 0.515086 12.1573 0.437443 12.1681C0.278482 12.1902 0.179223 12.3039 0.0829057 12.5737C-0.0263524 12.8805 -0.0282641 37.1991 0.080994 37.3109C0.121874 37.3528 0.200546 37.4561 0.255984 37.5407C0.311274 37.6253 0.40671 37.71 0.46803 37.729C0.560377 37.7576 0.584346 37.8354 0.606992 38.18C0.641696 38.7074 0.742131 38.9186 0.991969 38.9886C1.16431 39.0367 1.18313 39.0634 1.18313 39.2595C1.18313 39.5299 1.30724 39.6577 1.56973 39.6577C1.76398 39.6577 1.77133 39.6657 1.77133 39.8761C1.77133 40.1498 1.85427 40.2326 2.12852 40.2326C2.33527 40.2326 2.34615 40.2425 2.38247 40.4642C2.42909 40.7498 2.55437 40.8074 3.12802 40.8074H3.53593L3.53682 40.9943C3.53858 41.3504 3.5399 41.3508 4.78365 41.3823L5.91814 41.411L5.93623 41.5936C5.97167 41.9503 5.49611 41.9284 13.2481 41.9284C19.9907 41.9284 20.3596 41.9231 20.4593 41.8258C20.5578 41.7295 20.5653 41.4658 20.5815 37.5287L20.5987 33.3342H20.798C21.1219 33.3342 21.1819 33.2258 21.1819 32.6401V32.1269L21.3437 32.1261C21.65 32.1243 21.761 31.9024 21.7676 31.279C21.7701 31.0348 21.7703 31.0347 21.9936 31.0347C22.2754 31.0347 22.3583 30.9536 22.3583 30.6783C22.3583 30.4637 22.3623 30.4598 22.5818 30.4598C22.8629 30.4598 22.9465 30.3788 22.9465 30.1066V29.8913L23.2259 29.8737L23.5053 29.8562L23.5233 29.5831L23.5412 29.3101H24.0556C24.6411 29.3101 24.7111 29.272 24.7111 28.9537V28.7352H29.3242C33.4397 28.7352 33.9475 28.7254 34.0298 28.6448C34.1976 28.4808 34.1532 20.9854 33.9834 20.8196C33.9635 20.8 33.8504 20.7688 33.7323 20.75C33.5319 20.7181 33.4881 20.6774 33.3591 20.4035C33.3378 20.3581 33.2825 20.3039 33.2361 20.2831C33.1897 20.2621 33.0925 20.2151 33.0202 20.1786C32.9478 20.1421 32.8367 20.1122 32.773 20.1122C32.624 20.1122 32.3718 19.8662 32.3473 19.697C32.3311 19.585 32.2883 19.5635 32.052 19.5487L31.7757 19.5313L31.7579 19.2613L31.7401 18.9912L29.7035 18.9761L27.667 18.961L27.6292 18.7299C27.5827 18.4461 27.4567 18.3876 26.8911 18.3876H26.4907L26.4528 18.1559C26.4091 17.8889 26.2769 17.8127 25.8569 17.8127C25.5687 17.8127 25.3231 17.6332 25.2889 17.3975C25.2726 17.2853 25.2301 17.2642 24.9905 17.2491L24.7111 17.2315V16.9753C24.7111 16.8343 24.6805 16.6611 24.6432 16.5904C24.6058 16.5197 24.5578 16.4247 24.5363 16.3794C24.4958 16.2938 24.4017 16.2334 24.2259 16.1803C24.1485 16.157 24.1229 16.0873 24.1229 15.9003C24.1229 15.5953 24.0466 15.5133 23.7627 15.5133H23.5436L23.5244 14.713C23.503 13.8161 23.5149 13.848 23.1867 13.805L22.9465 13.7736V10.9757C22.9465 8.87628 22.9289 8.16071 22.8759 8.10897C22.7958 8.03065 6.10401 8.01814 5.69139 8.09604ZM14.135 19.2355L14.1529 19.5086L14.4617 19.526C14.7563 19.5425 14.7705 19.5507 14.7705 19.7039C14.7705 19.9558 14.9308 20.05 15.4301 20.0912L15.8747 20.128L15.9059 20.3548C15.9477 20.6588 15.9412 20.6555 16.54 20.6784L17.0645 20.6986V20.9113C17.0645 21.2234 17.1364 21.2619 17.7201 21.2619H18.2345L18.2524 21.535L18.2703 21.8081L18.5791 21.8255C18.8737 21.842 18.8879 21.8502 18.8879 22.0034C18.8879 22.2553 19.0482 22.3494 19.5475 22.3907L19.9921 22.4275L20.0233 22.6543C20.0651 22.9582 20.0586 22.9549 20.6574 22.9779L21.1819 22.998V23.2107C21.1819 23.5229 21.2538 23.5614 21.8375 23.5614H22.3519L22.3698 23.8345L22.3877 24.1075L22.6671 24.1251L22.9465 24.1426V25.0017V25.8609L22.726 25.8617C22.2989 25.8635 21.9095 26.056 21.8766 26.2818C21.8614 26.3857 21.8137 26.4102 21.5948 26.4254C21.2563 26.4488 21.1819 26.5141 21.1819 26.7877V27.0106H20.6862C20.1177 27.0106 20.0055 27.073 20.0055 27.3884V27.5855L19.6085 27.5912C19.0062 27.5999 18.9265 27.6349 18.8649 27.9186C18.815 28.1483 18.8018 28.1603 18.6002 28.1612C18.1811 28.1629 17.7918 28.3574 17.7592 28.5813C17.744 28.6852 17.6963 28.7096 17.4774 28.7249C17.1389 28.7483 17.0645 28.8135 17.0645 29.0872V29.3101H16.5688C16.0003 29.3101 15.8881 29.3725 15.8881 29.6879V29.885L15.4911 29.8907C14.8888 29.8993 14.8091 29.9344 14.7475 30.2181C14.6976 30.4477 14.6844 30.4598 14.4828 30.4607C14.0637 30.4624 13.6744 30.6569 13.6418 30.8808C13.6258 30.9903 13.5814 31.0081 13.2853 31.0232L12.9471 31.0404V30.8405C12.9471 30.5873 12.8177 30.4598 12.5605 30.4598H12.3589V25.0062V19.5524L12.5991 19.521C12.7311 19.5037 12.8524 19.4765 12.8688 19.4607C12.8849 19.4448 12.9127 19.3262 12.9304 19.1972L12.9626 18.9625H13.5399H14.1171L14.135 19.2355ZM24.7824 29.9532C24.7432 29.9916 24.7111 30.1212 24.7111 30.2414V30.4598H24.3032C23.7296 30.4598 23.6043 30.5174 23.5577 30.803C23.5222 31.0193 23.5068 31.0347 23.3255 31.0347C23.0674 31.0347 22.9465 31.1643 22.9465 31.4413C22.9465 31.6511 22.9348 31.667 22.7792 31.667C22.4588 31.667 22.3963 31.8181 22.3917 32.6029L22.3877 33.3054L22.664 33.3228L22.9404 33.3402L22.9581 33.6102L22.9759 33.8803L23.2771 33.8974C23.5597 33.9135 23.5815 33.9257 23.6321 34.0986C23.6987 34.3261 23.8997 34.428 24.3625 34.4689L24.7073 34.4996L24.7552 34.7358C24.8099 35.0067 24.8914 35.0404 25.5199 35.052L25.8875 35.0588V35.2558C25.8875 35.5713 25.9997 35.6336 26.5682 35.6336H27.0639V35.8521C27.0639 36.1704 27.1339 36.2085 27.7195 36.2085H28.2339L28.2518 36.4816L28.2697 36.7546L28.5709 36.7717C28.8535 36.7878 28.8753 36.8 28.9259 36.9729C28.9925 37.2004 29.1935 37.3023 29.6563 37.3433L30.0011 37.3739L30.049 37.6102C30.1036 37.8804 30.1855 37.9146 30.8059 37.9263L31.1659 37.9331L31.1981 38.1678C31.241 38.4807 31.2326 38.4763 31.8332 38.4993L32.3577 38.5195V38.7322C32.3577 39.0446 32.4295 39.0828 33.0165 39.0828H33.5341V39.3013C33.5341 39.5811 33.6171 39.6577 33.9197 39.6577C34.145 39.6577 34.1684 39.6724 34.2188 39.8445C34.3054 40.1397 34.5 40.1995 35.4509 40.2226C36.3866 40.2455 36.4751 40.2137 36.4751 39.8547V39.6577H36.883C37.4526 39.6577 37.5821 39.5992 37.6274 39.322L37.6642 39.0976L38.0402 39.068C38.4806 39.0335 38.7009 38.913 38.7485 38.6806C38.7803 38.5252 38.8038 38.5123 39.0847 38.4963C39.3479 38.4814 39.3892 38.4624 39.4057 38.3483C39.4451 38.0771 39.6802 37.9331 40.0834 37.9331C40.5119 37.9331 40.5925 37.8768 40.5925 37.5767V37.3582H41.0882C41.6567 37.3582 41.7689 37.2959 41.7689 36.9804V36.7834L42.166 36.7776C42.7683 36.769 42.848 36.7339 42.9096 36.4502C42.9608 36.2141 42.9677 36.2085 43.2037 36.2071C43.767 36.2039 44.0629 36.0531 44.0629 35.7693C44.0629 35.6535 44.0957 35.6378 44.3717 35.6223C44.642 35.607 44.6829 35.5885 44.6995 35.474C44.7389 35.2028 44.974 35.0588 45.3772 35.0588C45.8057 35.0588 45.8863 35.0024 45.8863 34.7023V34.4839H46.382C46.9477 34.4839 47.0627 34.4212 47.0627 34.1134V33.9234L47.564 33.8977C48.2396 33.863 48.2097 33.9192 48.2097 32.6847V31.6383L47.9334 31.6209L47.6571 31.6035L47.6393 31.3335L47.6215 31.0634L47.3452 31.046L47.0689 31.0287L47.0511 30.7586L47.0333 30.4886L46.7313 30.4715C46.4504 30.4555 46.4269 30.4426 46.3951 30.2872C46.3123 29.8827 47.234 29.9154 35.4462 29.8986C27.2046 29.8868 24.838 29.8989 24.7824 29.9532ZM22.0086 36.2592C21.7723 36.3236 21.7667 36.4522 21.7835 41.4871C21.801 46.745 21.78 46.4552 22.1482 46.5228L22.3457 46.559L22.3667 47.2069C22.3905 47.9398 22.4744 48.1453 22.7727 48.2037C22.9287 48.2341 22.9465 48.26 22.9465 48.4562C22.9465 48.7255 23.0699 48.8556 23.3255 48.8556C23.5068 48.8556 23.5222 48.871 23.5577 49.0872C23.6043 49.3728 23.7296 49.4304 24.3032 49.4304H24.7111V49.6275C24.7111 50.0414 23.7344 50.0082 35.4359 49.9915C47.0608 49.975 46.2653 50.002 46.3772 49.62C46.4278 49.4471 46.4495 49.4349 46.7322 49.4188L47.0333 49.4017L47.0511 49.1317L47.0689 48.8616L47.3452 48.8442L47.6215 48.8268L47.6395 48.5538L47.6574 48.2807H47.8777C48.1721 48.2807 48.2391 48.1992 48.2391 47.8419C48.2391 47.5903 48.2587 47.5351 48.3584 47.5042C48.424 47.4838 48.5228 47.398 48.5781 47.3135C48.6335 47.2288 48.7122 47.1255 48.7531 47.0837C48.8586 46.9758 48.8623 36.3807 48.7567 36.2775C48.491 36.0178 47.217 36.3016 47.1689 36.6313C47.1536 36.7361 47.1023 36.7589 46.8274 36.7834L46.5039 36.8121L46.486 37.0852L46.4681 37.3582H45.9537C45.37 37.3582 45.2981 37.3967 45.2981 37.7089V37.9216L44.7736 37.9417C44.1748 37.9647 44.1813 37.9614 44.1395 38.2655L44.1083 38.4926L43.6329 38.5312C43.085 38.5759 43.0041 38.6219 43.0041 38.8887C43.0041 39.0787 42.9987 39.0828 42.7542 39.0837C42.299 39.0853 41.9092 39.2717 41.8754 39.5038C41.8598 39.6107 41.8101 39.6331 41.5336 39.6577L41.2101 39.6864L41.1922 39.9595L41.1743 40.2326H40.6599C40.0762 40.2326 40.0043 40.2711 40.0043 40.5832V40.7959L39.4798 40.8161C38.881 40.839 38.8875 40.8357 38.8457 41.1399L38.8145 41.3669L38.3391 41.4056C37.7912 41.4503 37.7103 41.4963 37.7103 41.763V41.9572H37.4192C37.2471 41.9572 37.1088 41.9872 37.081 42.0305C37.0551 42.0707 36.9632 42.1476 36.8766 42.2013C36.7901 42.2551 36.7028 42.3502 36.6823 42.4129C36.6516 42.5075 36.5839 42.5296 36.2809 42.5437C35.9525 42.5591 35.9144 42.5737 35.8974 42.6917C35.8368 43.1091 35.3333 43.2434 35.2562 42.8629C35.1996 42.5831 35.1226 42.5506 34.4899 42.5388L34.1223 42.532V42.335C34.1223 42.0195 34.0101 41.9572 33.4416 41.9572H32.9459V41.7387C32.9459 41.4204 32.8759 41.3823 32.2904 41.3823H31.776L31.7581 41.1092L31.7401 40.8362L31.4166 40.8074C31.1402 40.7829 31.0904 40.7604 31.0749 40.6535C31.0421 40.4283 30.6527 40.2352 30.2281 40.2334C30.0264 40.2326 30.0074 40.2179 29.972 40.0334C29.9177 39.7507 29.8229 39.6992 29.3026 39.6698L28.8421 39.6438L28.8109 39.416C28.769 39.111 28.7756 39.1144 28.1767 39.0915L27.6521 39.0713V38.8586C27.6521 38.5465 27.5802 38.508 26.9966 38.508H26.4822L26.4643 38.2349L26.4463 37.9618L26.1443 37.9447C25.8634 37.9288 25.8399 37.9159 25.8081 37.7605C25.7603 37.5274 25.5399 37.4075 25.0946 37.3726C24.7175 37.343 24.713 37.3407 24.6767 37.1513C24.6239 36.8763 24.5263 36.8248 24.0021 36.795L23.5347 36.7686V36.5789C23.5347 36.2571 23.4287 36.2078 22.7511 36.2142C22.4219 36.2174 22.0878 36.2377 22.0086 36.2592Z" fill="#A1A1A1"/>
</svg>
