<svg width="40" height="41" viewBox="0 0 40 41" fill="none" xmlns="http://www.w3.org/2000/svg">
<rect y="0.5" width="40" height="40" rx="8" fill="#6BAA61"/>
<path d="M20.0199 29.0299C17.6899 29.0299 15.3599 28.6599 13.1499 27.9199C12.3099 27.6299 11.6699 27.0399 11.3899 26.2699C11.0999 25.4999 11.1999 24.6499 11.6599 23.8899L12.8099 21.9799C13.0499 21.5799 13.2699 20.7799 13.2699 20.3099V17.4199C13.2699 13.6999 16.2999 10.6699 20.0199 10.6699C23.7399 10.6699 26.7699 13.6999 26.7699 17.4199V20.3099C26.7699 20.7699 26.9899 21.5799 27.2299 21.9899L28.3699 23.8899C28.7999 24.6099 28.8799 25.4799 28.5899 26.2699C28.2999 27.0599 27.6699 27.6599 26.8799 27.9199C24.6799 28.6599 22.3499 29.0299 20.0199 29.0299ZM20.0199 12.1699C17.1299 12.1699 14.7699 14.5199 14.7699 17.4199V20.3099C14.7699 21.0399 14.4699 22.1199 14.0999 22.7499L12.9499 24.6599C12.7299 25.0299 12.6699 25.4199 12.7999 25.7499C12.9199 26.0899 13.2199 26.3499 13.6299 26.4899C17.8099 27.8899 22.2399 27.8899 26.4199 26.4899C26.7799 26.3699 27.0599 26.0999 27.1899 25.7399C27.3199 25.3799 27.2899 24.9899 27.0899 24.6599L25.9399 22.7499C25.5599 22.0999 25.2699 21.0299 25.2699 20.2999V17.4199C25.2699 14.5199 22.9199 12.1699 20.0199 12.1699Z" fill="white"/>
<path d="M21.8796 12.4402C21.8096 12.4402 21.7396 12.4302 21.6696 12.4102C21.3796 12.3302 21.0996 12.2702 20.8296 12.2302C19.9796 12.1202 19.1596 12.1802 18.3896 12.4102C18.1096 12.5002 17.8096 12.4102 17.6196 12.2002C17.4296 11.9902 17.3696 11.6902 17.4796 11.4202C17.8896 10.3702 18.8896 9.68018 20.0296 9.68018C21.1696 9.68018 22.1696 10.3602 22.5796 11.4202C22.6796 11.6902 22.6296 11.9902 22.4396 12.2002C22.2896 12.3602 22.0796 12.4402 21.8796 12.4402Z" fill="white"/>
<path d="M20.0195 31.3101C19.0295 31.3101 18.0695 30.9101 17.3695 30.2101C16.6695 29.5101 16.2695 28.5501 16.2695 27.5601H17.7695C17.7695 28.1501 18.0095 28.7301 18.4295 29.1501C18.8495 29.5701 19.4295 29.8101 20.0195 29.8101C21.2595 29.8101 22.2695 28.8001 22.2695 27.5601H23.7695C23.7695 29.6301 22.0895 31.3101 20.0195 31.3101Z" fill="white"/>
</svg>
