<svg width="51" height="51" viewBox="0 0 51 51" fill="none" xmlns="http://www.w3.org/2000/svg">
<path fill-rule="evenodd" clip-rule="evenodd" d="M4.01857 0.117519C3.96233 0.173597 3.91633 0.319886 3.91633 0.442606V0.665453H3.34417C2.69319 0.665453 2.61598 0.708202 2.61598 1.06856C2.61598 1.31514 2.61533 1.31563 2.34518 1.31563C2.07438 1.31563 2.02871 1.34115 1.68493 1.68493C1.34115 2.02871 1.31563 2.07438 1.31563 2.34518C1.31563 2.61533 1.31514 2.61598 1.06856 2.61598C0.708202 2.61598 0.665453 2.69319 0.665453 3.34417V3.91633H0.442606C0.319886 3.91633 0.173597 3.96233 0.117519 4.01857C-0.039173 4.17509 -0.039173 45.9189 0.117519 46.0754C0.173597 46.1317 0.319886 46.1777 0.442606 46.1777H0.665453V46.7498C0.665453 47.4008 0.708202 47.478 1.06856 47.478C1.31514 47.478 1.31563 47.4787 1.31563 47.7488C1.31563 48.0196 1.34115 48.0653 1.68493 48.4091C2.02871 48.7528 2.07438 48.7784 2.34518 48.7784C2.61533 48.7784 2.61598 48.7789 2.61598 49.0254C2.61598 49.3858 2.69319 49.4285 3.34417 49.4285H3.91633V49.6514C3.91633 49.7741 3.96233 49.9204 4.01857 49.9765C4.17509 50.1332 45.9189 50.1332 46.0754 49.9765C46.1317 49.9204 46.1777 49.7741 46.1777 49.6514V49.4285H46.7498C47.3997 49.4285 47.478 49.3856 47.478 49.029V48.7855L47.7868 48.7657C48.0516 48.7486 48.0986 48.7247 48.1166 48.5978C48.1438 48.4073 48.4073 48.1438 48.5978 48.1166C48.7247 48.0986 48.7486 48.0516 48.7657 47.7868L48.7855 47.478H49.029C49.3856 47.478 49.4285 47.3997 49.4285 46.7498V46.1777H49.6514C49.7741 46.1777 49.9204 46.1317 49.9765 46.0754C50.1332 45.9189 50.1332 4.17509 49.9765 4.01857C49.9204 3.96233 49.7741 3.91633 49.6514 3.91633H49.4285V3.34417C49.4285 2.69319 49.3858 2.61598 49.0254 2.61598C48.7789 2.61598 48.7784 2.61533 48.7784 2.34518C48.7784 2.07438 48.7528 2.02871 48.4091 1.68493C48.0653 1.34115 48.0196 1.31563 47.7488 1.31563C47.4787 1.31563 47.478 1.31514 47.478 1.06856C47.478 0.708202 47.4008 0.665453 46.7498 0.665453H46.1777V0.442606C46.1777 0.319886 46.1317 0.173597 46.0754 0.117519C45.9189 -0.039173 4.17509 -0.039173 4.01857 0.117519ZM27.9728 10.015C27.9728 10.3544 28.0619 10.4181 28.5355 10.4181C28.9812 10.4181 29.2411 10.5809 29.2847 10.8877C29.3027 11.0146 29.3497 11.0385 29.6145 11.0556L29.9233 11.0754V11.3189C29.9233 11.6259 30.0158 11.7184 30.3228 11.7184H30.5663L30.5862 12.0273L30.606 12.3361L30.9148 12.3559L31.2237 12.3757V12.8231C31.2237 13.4534 31.2892 13.5921 31.6118 13.6436L31.8738 13.6855V14.2494C31.8738 14.8916 31.9174 14.9693 32.2769 14.9693H32.524V16.9198V18.8703H32.2769C31.9174 18.8703 31.8738 18.948 31.8738 19.5902V20.1541L31.6118 20.196C31.2892 20.2476 31.2237 20.3862 31.2237 21.0166V21.4639L30.9148 21.4837L30.606 21.5035L30.5863 21.809L30.5667 22.1144L30.2612 22.1341L29.9558 22.1537L29.9361 22.4591L29.9165 22.7646L29.6111 22.7842C29.3499 22.801 29.3026 22.8253 29.2847 22.952C29.2411 23.2587 28.9812 23.4216 28.5355 23.4216C28.0619 23.4216 27.9728 23.4853 27.9728 23.8247V24.0717H25.047H22.1212V23.8247C22.1212 23.4853 22.0321 23.4216 21.5585 23.4216C21.1128 23.4216 20.8529 23.2587 20.8093 22.952C20.7914 22.8253 20.7441 22.801 20.4829 22.7842L20.1775 22.7646L20.1578 22.4591L20.1382 22.1537L19.8328 22.1341L19.5273 22.1144L19.5077 21.809L19.488 21.5035L19.1792 21.4837L18.8703 21.4639V21.0166C18.8703 20.3862 18.8048 20.2476 18.4822 20.196L18.2202 20.1541V19.5902C18.2202 18.948 18.1766 18.8703 17.8171 18.8703H17.57V16.9198V14.9693H17.8171C18.1766 14.9693 18.2202 14.8916 18.2202 14.2494V13.6855L18.4822 13.6436C18.8048 13.5921 18.8703 13.4534 18.8703 12.8231V12.3757L19.1792 12.3559L19.488 12.3361L19.5078 12.0273L19.5277 11.7184H19.7712C20.0782 11.7184 20.1707 11.6259 20.1707 11.3189V11.0754L20.4795 11.0556L20.7884 11.0357L20.8082 10.7269L20.828 10.4181H21.3966C22.0438 10.4181 22.1212 10.375 22.1212 10.015V9.7679H25.047H27.9728V10.015ZM29.3603 31.4158C29.4366 31.7974 29.6013 31.8389 31.1393 31.8631L32.524 31.885V32.1024C32.524 32.4856 32.6222 32.524 33.6015 32.524H34.4745V32.7711C34.4745 33.1306 34.5522 33.1742 35.1941 33.1742H35.7578L35.7934 33.4396C35.8409 33.7935 35.8316 33.7886 36.4954 33.8146L37.0752 33.8374V34.0779C37.0752 34.3897 37.1684 34.4745 37.5108 34.4745C37.7748 34.4745 37.7904 34.4849 37.7904 34.6595C37.7904 34.9129 37.9552 35.0373 38.3629 35.0919C38.74 35.1423 39.0007 35.3365 39.0373 35.5943C39.0509 35.6907 39.1099 35.7497 39.2063 35.7633C39.4729 35.8012 39.6759 36.0727 39.6759 36.3912C39.6759 36.8555 39.7621 37.0016 40.0641 37.0499L40.3261 37.0918L40.3289 37.6849C40.3339 38.7171 40.4223 38.9576 40.7975 38.9598C40.9707 38.9607 40.9763 38.9718 40.9763 39.3183V39.6759H40.7534C40.4701 39.6759 40.3261 39.8199 40.3261 40.1032C40.3261 40.3137 40.3137 40.3261 40.1032 40.3261C39.8199 40.3261 39.6759 40.4701 39.6759 40.7534V40.9763H25.047H10.4181V40.7534C10.4181 40.6307 10.3721 40.4844 10.3158 40.4283C10.2598 40.3721 10.1135 40.3261 9.99074 40.3261C9.78025 40.3261 9.7679 40.3137 9.7679 40.1032C9.7679 39.9805 9.7219 39.8342 9.66566 39.7782C9.60958 39.7219 9.46329 39.6759 9.34057 39.6759H9.11772V39.3183C9.11772 38.9718 9.12325 38.9607 9.29652 38.9598C9.67167 38.9576 9.76009 38.7169 9.76513 37.6859L9.7679 37.0938L10.0413 37.0357C10.3438 36.9715 10.3999 36.8722 10.4116 36.3792C10.4189 36.0733 10.6302 35.7999 10.8877 35.7633C11.0146 35.7453 11.0385 35.6983 11.0556 35.4335L11.0754 35.1247L11.3481 35.1219C12.0497 35.1146 12.3007 34.9914 12.3026 34.6533C12.3036 34.4861 12.3218 34.4745 12.5832 34.4745C12.9256 34.4745 13.0188 34.3897 13.0188 34.0779V33.8374L13.5986 33.8146C14.2624 33.7886 14.2531 33.7935 14.3006 33.4396L14.3362 33.1742H14.8999C15.5418 33.1742 15.6195 33.1306 15.6195 32.7711V32.524H16.4925C17.4718 32.524 17.57 32.4856 17.57 32.1024V31.885L18.9547 31.8631C20.4927 31.8389 20.6573 31.7974 20.7337 31.4158L20.7721 31.2237H25.047H29.3219L29.3603 31.4158Z" fill="#A1A1A1"/>
</svg>
