<svg width="40" height="41" viewBox="0 0 40 41" fill="none" xmlns="http://www.w3.org/2000/svg">
<rect y="0.5" width="40" height="40" rx="8" fill="#FF9C00"/>
<path d="M20.0009 22.6699C17.8709 22.6699 16.1309 20.9399 16.1309 18.7999C16.1309 16.6599 17.8709 14.9399 20.0009 14.9399C22.1309 14.9399 23.8709 16.6699 23.8709 18.8099C23.8709 20.9499 22.1309 22.6699 20.0009 22.6699ZM20.0009 16.4399C18.7009 16.4399 17.6309 17.4999 17.6309 18.8099C17.6309 20.1199 18.6909 21.1799 20.0009 21.1799C21.3109 21.1799 22.3709 20.1199 22.3709 18.8099C22.3709 17.4999 21.3009 16.4399 20.0009 16.4399Z" fill="white"/>
<path d="M19.9997 31.26C18.5197 31.26 17.0297 30.7 15.8697 29.59C12.9197 26.75 9.65969 22.22 10.8897 16.83C11.9997 11.94 16.2697 9.75 19.9997 9.75C19.9997 9.75 19.9997 9.75 20.0097 9.75C23.7397 9.75 28.0097 11.94 29.1197 16.84C30.3397 22.23 27.0797 26.75 24.1297 29.59C22.9697 30.7 21.4797 31.26 19.9997 31.26ZM19.9997 11.25C17.0897 11.25 13.3497 12.8 12.3597 17.16C11.2797 21.87 14.2397 25.93 16.9197 28.5C18.6497 30.17 21.3597 30.17 23.0897 28.5C25.7597 25.93 28.7197 21.87 27.6597 17.16C26.6597 12.8 22.9097 11.25 19.9997 11.25Z" fill="white"/>
</svg>
