<svg width="40" height="41" viewBox="0 0 40 41" fill="none" xmlns="http://www.w3.org/2000/svg">
<rect y="0.5" width="40" height="40" rx="8" fill="#057CE4"/>
<path d="M20 21.25C16.83 21.25 14.25 18.67 14.25 15.5C14.25 12.33 16.83 9.75 20 9.75C23.17 9.75 25.75 12.33 25.75 15.5C25.75 18.67 23.17 21.25 20 21.25ZM20 11.25C17.66 11.25 15.75 13.16 15.75 15.5C15.75 17.84 17.66 19.75 20 19.75C22.34 19.75 24.25 17.84 24.25 15.5C24.25 13.16 22.34 11.25 20 11.25Z" fill="white"/>
<path d="M28.5901 31.25C28.1801 31.25 27.8401 30.91 27.8401 30.5C27.8401 27.05 24.3202 24.25 20.0002 24.25C15.6801 24.25 12.1602 27.05 12.1602 30.5C12.1602 30.91 11.8202 31.25 11.4102 31.25C11.0002 31.25 10.6602 30.91 10.6602 30.5C10.6602 26.23 14.8501 22.75 20.0002 22.75C25.1502 22.75 29.3401 26.23 29.3401 30.5C29.3401 30.91 29.0001 31.25 28.5901 31.25Z" fill="white"/>
</svg>
