<svg width="24" height="24" viewBox="0 0 24 24" fill="none" xmlns="http://www.w3.org/2000/svg">
<path opacity="0.3" d="M3.6001 7.19998C3.6001 6.2452 3.97938 5.32952 4.65451 4.65439C5.32964 3.97926 6.24532 3.59998 7.2001 3.59998H16.8001C17.7549 3.59998 18.6706 3.97926 19.3457 4.65439C20.0208 5.32952 20.4001 6.2452 20.4001 7.19998V11.2812C19.8527 10.9652 19.2318 10.7988 18.5998 10.7989C17.9678 10.7989 17.3469 10.9654 16.7996 11.2815C16.2523 11.5975 15.7979 12.0522 15.482 12.5996C15.1661 13.147 14.9999 13.768 15.0001 14.4H13.2001C13.041 14.4 12.8884 14.4632 12.7758 14.5757C12.6633 14.6882 12.6001 14.8408 12.6001 15C12.6001 15.1591 12.6633 15.3117 12.7758 15.4242C12.8884 15.5368 13.041 15.6 13.2001 15.6H15.2041C15.363 16.0478 15.6089 16.4597 15.9277 16.812C15.1822 16.8799 14.4891 17.2242 13.9844 17.777C13.4798 18.3299 13.2 19.0514 13.2001 19.8C13.2001 20.0004 13.2157 20.2008 13.2457 20.4H7.2001C6.24532 20.4 5.32964 20.0207 4.65451 19.3456C3.97938 18.6704 3.6001 17.7548 3.6001 16.8V7.19998ZM11.2249 8.52478C11.3376 8.41211 11.4009 8.25931 11.4009 8.09998C11.4009 7.94064 11.3376 7.78784 11.2249 7.67518C11.1122 7.56251 10.9594 7.49922 10.8001 7.49922C10.6408 7.49922 10.488 7.56251 10.3753 7.67518L8.6809 9.36958L8.2045 8.93518C8.08613 8.834 7.93306 8.78281 7.77764 8.79242C7.62222 8.80202 7.47663 8.87167 7.37162 8.98665C7.26661 9.10163 7.21041 9.25294 7.21491 9.40859C7.2194 9.56424 7.28423 9.71205 7.3957 9.82078L8.2957 10.6428C8.40973 10.7466 8.55937 10.8025 8.71354 10.799C8.86772 10.7954 9.0146 10.7326 9.1237 10.6236L11.2237 8.52358L11.2249 8.52478ZM11.2249 13.6752C11.1692 13.6193 11.103 13.575 11.0301 13.5447C10.9572 13.5145 10.879 13.4989 10.8001 13.4989C10.7212 13.4989 10.643 13.5145 10.5701 13.5447C10.4972 13.575 10.431 13.6193 10.3753 13.6752L8.6809 15.3696L8.2045 14.9352C8.08613 14.834 7.93306 14.7828 7.77764 14.7924C7.62222 14.802 7.47663 14.8717 7.37162 14.9867C7.26661 15.1016 7.21041 15.2529 7.21491 15.4086C7.2194 15.5642 7.28423 15.712 7.3957 15.8208L8.2957 16.6428C8.40958 16.7468 8.55913 16.8029 8.7133 16.7995C8.86748 16.7962 9.01444 16.7336 9.1237 16.6248L11.2237 14.5248C11.3362 14.4123 11.3994 14.2597 11.3994 14.1006C11.3994 13.9415 11.3362 13.7889 11.2237 13.6764L11.2249 13.6752ZM12.6001 8.99998C12.6001 9.15911 12.6633 9.31172 12.7758 9.42424C12.8884 9.53676 13.041 9.59998 13.2001 9.59998H16.2001C16.3592 9.59998 16.5118 9.53676 16.6244 9.42424C16.7369 9.31172 16.8001 9.15911 16.8001 8.99998C16.8001 8.84085 16.7369 8.68823 16.6244 8.57571C16.5118 8.46319 16.3592 8.39998 16.2001 8.39998H13.2001C13.041 8.39998 12.8884 8.46319 12.7758 8.57571C12.6633 8.68823 12.6001 8.84085 12.6001 8.99998ZM21.0001 14.4C21.0001 15.0365 20.7472 15.6469 20.2972 16.097C19.8471 16.5471 19.2366 16.8 18.6001 16.8C17.9636 16.8 17.3531 16.5471 16.903 16.097C16.453 15.6469 16.2001 15.0365 16.2001 14.4C16.2001 13.7635 16.453 13.153 16.903 12.7029C17.3531 12.2528 17.9636 12 18.6001 12C19.2366 12 19.8471 12.2528 20.2972 12.7029C20.7472 13.153 21.0001 13.7635 21.0001 14.4ZM22.8001 19.8C22.8001 21.294 21.6001 22.8 18.6001 22.8C15.6001 22.8 14.4001 21.3 14.4001 19.8C14.4001 19.3226 14.5897 18.8647 14.9273 18.5272C15.2649 18.1896 15.7227 18 16.2001 18H21.0001C21.4775 18 21.9353 18.1896 22.2729 18.5272C22.6105 18.8647 22.8001 19.3226 22.8001 19.8Z" fill="#057CE4"/>
<path fill-rule="evenodd" clip-rule="evenodd" d="M20.2972 16.097C20.7472 15.6469 21.0001 15.0365 21.0001 14.4C21.0001 13.7635 20.7472 13.153 20.2972 12.7029C19.8471 12.2528 19.2366 12 18.6001 12C17.9636 12 17.3531 12.2528 16.903 12.7029C16.453 13.153 16.2001 13.7635 16.2001 14.4C16.2001 15.0365 16.453 15.6469 16.903 16.097C17.3531 16.5471 17.9636 16.8 18.6001 16.8C19.2366 16.8 19.8471 16.5471 20.2972 16.097ZM18.6001 22.8C21.6001 22.8 22.8001 21.294 22.8001 19.8C22.8001 19.3226 22.6105 18.8647 22.2729 18.5272C21.9353 18.1896 21.4775 18 21.0001 18H16.2001C15.7227 18 15.2649 18.1896 14.9273 18.5272C14.5897 18.8647 14.4001 19.3226 14.4001 19.8C14.4001 21.3 15.6001 22.8 18.6001 22.8Z" fill="#057CE4"/>
<path d="M11.2249 8.52478C11.3376 8.41211 11.4009 8.25931 11.4009 8.09998C11.4009 7.94064 11.3376 7.78784 11.2249 7.67518C11.1122 7.56251 10.9594 7.49922 10.8001 7.49922C10.6408 7.49922 10.488 7.56251 10.3753 7.67518L8.6809 9.36958L8.2045 8.93518C8.08613 8.834 7.93306 8.78281 7.77764 8.79242C7.62222 8.80202 7.47663 8.87167 7.37162 8.98665C7.26661 9.10163 7.21041 9.25294 7.21491 9.40859C7.2194 9.56424 7.28423 9.71205 7.3957 9.82078L8.2957 10.6428C8.40973 10.7466 8.55937 10.8025 8.71354 10.799C8.86772 10.7954 9.0146 10.7326 9.1237 10.6236L11.2237 8.52358L11.2249 8.52478Z" fill="#057CE4"/>
<path d="M12.6001 8.99998C12.6001 9.15911 12.6633 9.31172 12.7758 9.42424C12.8884 9.53676 13.041 9.59998 13.2001 9.59998H16.2001C16.3592 9.59998 16.5118 9.53676 16.6244 9.42424C16.7369 9.31172 16.8001 9.15911 16.8001 8.99998C16.8001 8.84085 16.7369 8.68823 16.6244 8.57571C16.5118 8.46319 16.3592 8.39998 16.2001 8.39998H13.2001C13.041 8.39998 12.8884 8.46319 12.7758 8.57571C12.6633 8.68823 12.6001 8.84085 12.6001 8.99998Z" fill="#057CE4"/>
<path d="M11.2249 13.6752C11.1692 13.6193 11.103 13.575 11.0301 13.5447C10.9572 13.5145 10.879 13.4989 10.8001 13.4989C10.7212 13.4989 10.643 13.5145 10.5701 13.5447C10.4972 13.575 10.431 13.6193 10.3753 13.6752L8.6809 15.3696L8.2045 14.9352C8.08613 14.834 7.93306 14.7828 7.77764 14.7924C7.62222 14.802 7.47663 14.8717 7.37162 14.9867C7.26661 15.1016 7.21041 15.2529 7.21491 15.4086C7.2194 15.5642 7.28423 15.712 7.3957 15.8208L8.2957 16.6428C8.40958 16.7468 8.55913 16.8029 8.7133 16.7995C8.86748 16.7962 9.01444 16.7336 9.1237 16.6248L11.2237 14.5248C11.3362 14.4123 11.3994 14.2597 11.3994 14.1006C11.3994 13.9415 11.3362 13.7889 11.2237 13.6764L11.2249 13.6752Z" fill="#057CE4"/>
<path d="M15.0001 14.4H13.2001C13.041 14.4 12.8884 14.4632 12.7758 14.5757C12.6633 14.6882 12.6001 14.8408 12.6001 15C12.6001 15.1591 12.6633 15.3117 12.7758 15.4242C12.8884 15.5368 13.041 15.6 13.2001 15.6H15.2041C15.0683 15.28 15.0115 14.6666 15.0001 14.4Z" fill="#057CE4"/>
</svg>
